<?xml version="1.0" standalone="no"?>
<!DOCTYPE svg PUBLIC "-//W3C//DTD SVG 20010904//EN"
 "http://www.w3.org/TR/2001/REC-SVG-20010904/DTD/svg10.dtd">
<svg version="1.0" xmlns="http://www.w3.org/2000/svg"
 width="1200.000000pt" height="1200.000000pt" viewBox="0 0 1200.000000 1200.000000"
 preserveAspectRatio="xMidYMid meet">

<g transform="translate(0.000000,1200.000000) scale(0.100000,-0.100000)"
fill="#000000" stroke="none">
<path d="M5197 11160 c-3 -8 -28 -128 -56 -266 -39 -193 -51 -273 -51 -343 l0
-91 -30 0 c-28 0 -30 -3 -30 -35 0 -32 2 -35 30 -35 l30 0 0 -75 0 -75 -30 0
c-28 0 -30 -2 -30 -40 0 -38 2 -40 30 -40 l30 0 0 -75 0 -75 -30 0 c-28 0 -30
-3 -30 -35 0 -32 2 -35 30 -35 l30 0 0 -95 c0 -87 -3 -101 -31 -158 -17 -34
-35 -63 -40 -65 -5 -2 -9 -205 -9 -453 l0 -449 -38 -19 c-35 -18 -41 -18 -54
-5 -13 13 -19 10 -51 -25 -20 -22 -82 -68 -139 -102 -57 -34 -131 -81 -165
-105 -34 -24 -65 -44 -70 -44 -7 0 -150 84 -161 94 -5 6 21 66 28 66 5 0 25
-9 44 -21 124 -73 284 50 246 190 -20 76 -91 131 -170 131 l-40 0 0 120 0 120
40 0 c107 0 190 96 175 199 -5 37 -16 55 -54 92 -67 65 -142 73 -215 23 -21
-14 -46 -3 -46 20 0 6 -23 49 -50 95 -28 46 -50 86 -50 88 0 1 7 3 15 3 22 0
81 56 95 90 17 42 8 134 -16 167 -35 46 -70 66 -128 71 -67 5 -126 -24 -158
-78 -12 -19 -22 -36 -23 -38 -1 -1 -31 14 -66 34 -35 20 -77 44 -94 52 -53 27
-54 28 -27 82 32 64 25 125 -20 176 -41 47 -77 64 -134 64 -96 0 -167 -72
-167 -167 l0 -43 -124 0 -123 0 0 46 c0 96 -72 166 -170 166 -94 0 -161 -64
-168 -160 -3 -49 0 -63 22 -95 l25 -37 -57 -29 c-31 -16 -81 -45 -109 -64 -35
-24 -53 -31 -53 -22 0 22 -62 87 -97 101 -42 18 -107 18 -141 0 -57 -30 -102
-101 -102 -163 0 -47 40 -112 86 -139 l43 -25 -45 -70 c-25 -38 -52 -85 -60
-104 l-14 -35 -33 16 c-102 54 -199 27 -247 -67 -39 -74 -18 -155 53 -213 28
-22 48 -29 88 -32 l53 -2 0 -121 1 -121 -44 0 c-59 0 -117 -34 -148 -88 -48
-82 -13 -196 72 -236 50 -24 117 -23 160 3 20 11 38 21 40 21 3 0 16 -23 30
-50 14 -28 41 -75 60 -105 l35 -54 -36 -17 c-40 -19 -80 -73 -90 -120 -14 -72
35 -160 105 -190 86 -36 172 -1 226 91 10 16 16 15 75 -21 36 -21 83 -48 106
-58 l40 -20 -24 -44 c-21 -37 -24 -52 -19 -98 9 -92 67 -146 161 -152 55 -3
65 -1 102 26 49 36 74 85 74 144 l0 43 121 -2 121 -2 3 -50 c4 -90 79 -161
168 -161 57 0 94 17 134 63 49 56 52 156 5 210 -17 20 -18 19 25 41 l31 16 41
-71 c23 -39 41 -72 41 -75 0 -2 -40 -56 -89 -121 -147 -195 -281 -425 -374
-641 -21 -50 -31 -62 -45 -58 -16 5 -120 25 -882 172 -513 99 -594 115 -694
134 -138 28 -132 29 -142 -32 -7 -38 -13 -52 -24 -51 -8 1 -77 14 -153 28 -76
15 -145 24 -153 21 -8 -3 -14 -16 -14 -28 0 -49 -8 -50 -143 -23 -141 28 -200
31 -261 13 -81 -23 -182 -113 -208 -185 -9 -25 -16 -31 -32 -28 -84 19 -119
25 -123 21 -9 -9 -21 -76 -14 -80 4 -3 37 -10 73 -17 l65 -12 6 -56 c8 -76 30
-126 83 -187 57 -67 109 -91 274 -124 l135 -26 -3 -45 -3 -46 161 -29 162 -29
-7 -44 c-4 -24 -9 -49 -11 -56 -5 -13 -8 -12 266 -65 85 -17 211 -41 280 -55
69 -13 139 -27 157 -30 17 -3 89 -16 160 -30 70 -14 200 -39 288 -56 88 -17
214 -41 280 -55 66 -13 133 -26 149 -28 16 -3 54 -10 83 -16 l54 -12 -3 -121
-3 -121 -409 -153 c-224 -85 -410 -152 -413 -150 -2 3 5 24 17 46 l21 42 -101
46 -100 46 0 46 c0 132 -154 191 -243 93 -18 -20 -19 -20 -113 20 -52 23 -96
39 -98 37 -18 -19 -197 -442 -190 -448 5 -4 69 -34 142 -67 72 -32 132 -61
132 -64 0 -4 -30 -17 -67 -30 -87 -31 -145 -87 -167 -161 -22 -72 -21 -80 19
-194 70 -201 86 -397 47 -590 -11 -55 -23 -122 -27 -148 l-6 -48 -134 -64
c-151 -73 -195 -113 -216 -196 -12 -44 -30 -66 -48 -55 -4 3 -14 23 -21 46 -7
23 -17 43 -21 45 -4 3 -23 -2 -43 -10 -35 -15 -36 -18 -30 -50 5 -31 4 -33
-15 -28 -71 18 -161 -70 -234 -231 -15 -32 -27 -64 -27 -70 0 -16 157 -80 233
-96 69 -14 107 -7 148 27 25 22 32 24 40 12 5 -8 9 -20 9 -26 0 -16 17 -16 59
-2 35 12 37 22 16 72 -8 20 -15 38 -15 41 0 2 37 18 83 36 45 17 92 41 104 52
28 26 46 78 41 119 -3 32 -2 32 162 114 l165 82 17 109 c9 60 17 115 17 122 1
11 17 12 76 7 41 -4 75 -3 75 1 0 14 80 377 83 381 2 2 23 -4 47 -12 55 -20
148 -26 202 -13 23 5 151 50 285 100 l243 92 -27 22 c-16 12 -25 25 -22 29 4
3 82 35 175 70 93 35 182 68 198 74 l29 12 -23 24 -22 24 34 14 c77 32 75 33
93 -25 10 -29 42 -109 71 -178 l54 -125 -114 -319 -114 -319 -68 -68 -68 -69
48 -49 c56 -57 58 -38 -21 -226 -77 -183 -135 -305 -144 -305 -4 0 -11 5 -14
10 -11 18 -21 11 -101 -64 l-79 -73 38 -47 38 -46 -44 -68 c-100 -150 -252
-335 -366 -446 l-51 -50 -28 27 -28 27 -27 -28 -27 -28 26 -26 26 -26 -41 -37
-41 -37 0 -79 c0 -89 -8 -81 102 -97 l57 -9 38 39 c20 21 42 38 49 38 7 0 24
-14 39 -31 l26 -32 24 23 c32 30 31 37 -2 73 l-28 28 45 40 c120 105 289 226
443 316 l110 64 48 -47 47 -46 81 77 c78 74 81 79 65 97 -10 10 -15 20 -13 22
9 9 124 52 304 112 l190 64 50 -55 50 -56 70 64 c64 58 77 66 155 86 47 13
137 38 200 56 63 19 167 48 230 65 63 17 134 41 158 52 40 21 44 21 77 5 l35
-17 0 -114 0 -115 33 -3 32 -3 3 -123 3 -122 34 0 35 0 0 -120 0 -120 35 0 35
0 0 -234 0 -234 -43 -6 c-23 -4 -66 -17 -95 -31 -69 -32 -72 -61 -8 -99 59
-35 131 -108 166 -170 24 -41 30 -63 30 -112 l0 -61 -58 -16 c-77 -21 -127
-56 -127 -87 0 -23 10 -28 121 -65 189 -63 300 -142 393 -280 66 -100 91 -168
91 -255 l0 -70 35 0 35 0 0 55 0 55 500 0 500 0 0 -55 0 -55 34 0 c40 0 46 13
46 106 0 52 7 75 41 145 34 68 60 102 133 174 103 103 176 144 334 191 92 27
93 28 90 57 -3 25 -12 35 -58 58 -30 15 -72 31 -92 34 l-38 7 0 54 c0 94 80
214 190 284 41 26 50 37 50 60 0 25 -6 31 -55 49 -30 12 -73 24 -95 27 l-40 7
0 233 0 234 35 0 35 0 0 119 0 120 38 3 37 3 3 123 3 122 29 0 30 0 0 115 0
115 42 21 43 22 93 -99 c51 -54 160 -171 242 -259 l149 -160 110 -55 c104 -51
111 -53 129 -37 18 16 26 9 188 -161 93 -97 194 -203 223 -235 l54 -58 -36
-37 -36 -37 75 -82 c74 -82 76 -82 100 -67 13 9 24 21 24 27 0 6 -23 35 -52
64 -50 50 -51 54 -35 70 17 17 22 16 103 -27 77 -40 101 -61 236 -203 l151
-158 26 25 26 26 -75 75 c-41 41 -71 75 -67 75 4 0 59 -27 122 -61 63 -33 115
-59 115 -57 0 3 -25 60 -55 128 -30 68 -54 125 -52 127 2 1 36 -34 77 -78 l73
-81 25 26 25 25 -119 127 c-179 191 -189 203 -223 282 -47 106 -35 120 39 47
l60 -59 25 24 26 24 -83 83 -82 83 -33 -32 c-29 -28 -35 -30 -46 -18 -8 8 -87
94 -178 190 -231 246 -216 223 -117 194 79 -22 86 -27 151 -95 l68 -72 25 23
24 24 -27 28 c-33 34 -31 34 82 4 86 -24 92 -27 148 -87 l58 -62 -31 -32 -30
-31 25 -24 25 -24 31 30 30 29 28 -31 28 -31 26 21 26 21 -29 35 -29 35 32 27
32 26 -24 26 -25 26 -26 -25 c-14 -14 -31 -25 -37 -25 -5 0 -34 28 -64 62 -50
57 -56 69 -75 155 -11 51 -17 93 -13 93 4 0 16 -11 26 -25 l18 -24 26 23 27
23 -69 76 c-64 70 -70 80 -84 148 -8 39 -14 73 -13 74 2 2 89 -88 195 -199
l191 -201 -34 -35 -33 -35 78 -85 79 -85 26 24 26 25 -56 57 c-49 49 -55 60
-45 73 12 14 23 10 101 -30 80 -42 100 -59 236 -204 l149 -158 23 21 c12 11
22 23 22 27 0 3 -32 41 -72 84 l-72 78 127 -67 c145 -76 139 -85 58 89 -28 60
-51 111 -51 115 0 3 36 -33 79 -79 l79 -85 26 25 25 25 -152 160 c-132 138
-157 171 -191 242 -34 70 -37 84 -26 98 12 14 20 10 71 -41 l59 -58 25 24 26
24 -78 78 c-43 43 -82 78 -87 78 -6 0 -24 -13 -41 -29 l-30 -29 -223 235 -223
236 21 22 21 23 -25 51 c-15 28 -35 75 -46 105 -20 53 -91 132 -492 552 l-38
40 60 128 61 127 32 -6 c18 -4 88 -24 157 -45 69 -21 162 -48 206 -60 l82 -22
-11 -34 c-6 -19 -8 -35 -6 -37 2 -2 45 -18 94 -35 50 -17 98 -34 107 -37 13
-5 19 2 29 34 9 30 17 40 28 37 9 -3 39 -10 66 -17 66 -16 85 -26 85 -47 1
-68 100 -185 193 -228 54 -25 74 -29 152 -29 82 0 97 3 157 33 37 18 78 46 92
63 l26 31 78 -26 c106 -36 109 -38 93 -72 -14 -30 -9 -37 35 -52 l32 -10 23
69 c13 38 28 69 34 69 6 0 132 -43 280 -95 148 -52 270 -95 271 -95 5 0 26 71
22 74 -1 2 -122 45 -268 96 -146 51 -269 96 -274 101 -5 4 1 35 13 70 26 78
26 76 -3 83 -13 3 -31 9 -39 12 -11 4 -17 -4 -22 -25 -4 -17 -12 -31 -18 -31
-6 0 -48 12 -93 27 l-82 27 -7 53 c-15 123 -119 249 -236 287 -100 32 -241 12
-318 -45 l-30 -22 -74 32 -75 33 16 39 c8 22 13 41 11 42 -7 6 -213 77 -221
77 -5 0 -8 -4 -8 -9 0 -5 -4 -21 -9 -35 l-10 -24 -194 83 c-107 45 -211 88
-231 95 -20 6 -36 17 -36 23 0 7 11 68 25 137 13 69 25 139 25 155 1 27 2 28
14 13 7 -10 16 -18 20 -18 3 0 77 30 164 66 86 36 351 147 587 245 237 99 439
183 450 188 11 5 46 21 78 35 52 23 58 28 51 48 -4 13 -7 29 -8 37 -1 9 66 42
184 92 181 77 185 79 183 107 -2 27 2 30 130 84 128 53 136 59 126 96 -3 8 17
22 49 35 l54 22 41 105 42 105 53 24 c54 26 60 37 40 74 -7 12 -13 23 -14 25
0 1 -27 -9 -58 -23 l-57 -25 -67 29 c-131 56 -134 57 -192 33 l-51 -21 -11 24
-11 24 -46 -19 c-25 -10 -88 -36 -139 -58 -92 -40 -92 -40 -104 -18 -6 11 -12
22 -13 24 -1 1 -45 -16 -98 -38 -54 -22 -140 -58 -192 -80 l-95 -39 -16 32
c-9 18 -17 33 -19 35 -1 1 -73 -27 -160 -63 -86 -36 -159 -65 -162 -65 -5 0
-10 11 -127 287 -47 112 -88 213 -91 226 -6 22 3 27 147 87 84 34 157 66 161
70 5 4 1 22 -7 39 l-17 31 43 20 c24 11 111 49 193 83 83 35 149 68 148 73 -1
5 -4 16 -8 25 -5 13 21 27 127 72 128 54 133 57 131 84 -2 25 3 30 50 48 l52
20 45 109 45 110 53 23 c28 12 52 25 52 28 0 3 -7 19 -15 35 l-15 30 -53 -21
c-28 -11 -53 -22 -55 -24 -4 -4 -47 13 -130 51 -64 29 -87 30 -143 4 l-44 -19
-13 24 c-12 25 -13 25 -50 9 -244 -104 -240 -103 -255 -59 -2 5 -87 -25 -190
-68 -102 -42 -191 -77 -196 -77 -6 0 -17 16 -26 36 -12 29 -17 33 -33 25 -30
-16 -1001 -421 -1010 -421 -4 0 -25 26 -47 58 -82 118 -204 261 -331 388
l-132 131 86 104 c104 126 160 182 322 323 69 60 138 120 155 135 82 71 201
173 275 235 71 60 85 68 101 58 24 -15 114 -15 142 0 25 12 67 55 67 67 0 4
-5 12 -11 18 -9 9 -8 18 5 38 l17 26 27 -20 c15 -11 40 -31 57 -44 l29 -24 20
25 20 25 -38 31 c-37 32 -37 32 -17 50 34 31 34 51 1 117 -18 34 -53 108 -80
165 l-48 103 56 32 56 31 -30 27 c-16 14 -44 38 -63 54 -23 19 -30 31 -24 40
6 6 38 47 73 90 60 75 62 79 45 97 -10 11 -22 20 -26 20 -4 0 -40 -41 -79 -90
l-72 -90 -63 50 c-35 27 -65 50 -68 50 -2 0 -12 -27 -21 -60 -9 -33 -19 -60
-21 -60 -2 0 -64 14 -137 31 -257 60 -226 58 -254 21 l-26 -32 -38 30 c-36 28
-38 29 -54 11 -24 -26 -21 -34 35 -81 l50 -42 -22 -24 c-20 -22 -24 -23 -40
-8 -15 14 -19 12 -39 -22 -34 -54 -38 -122 -10 -172 l23 -40 -58 -113 c-32
-63 -72 -139 -90 -169 -18 -30 -56 -100 -85 -155 -143 -272 -223 -400 -334
-540 -44 -55 -81 -102 -82 -104 -2 -2 -52 27 -111 65 -59 37 -163 96 -230 132
l-123 64 0 443 c0 292 -3 446 -10 450 -6 4 -26 38 -45 75 -32 64 -35 77 -35
160 l0 90 30 0 c28 0 30 3 30 35 0 32 -2 35 -30 35 l-30 0 0 75 0 75 30 0 c28
0 30 2 30 40 0 38 -2 40 -30 40 l-30 0 0 75 0 75 30 0 c28 0 30 3 30 35 0 32
-2 35 -30 35 l-30 0 0 98 c-1 77 -12 151 -54 357 -29 143 -56 253 -59 245 -3
-8 -28 -127 -56 -265 l-51 -250 0 -447 0 -448 -32 -65 c-30 -60 -35 -65 -65
-65 l-33 0 0 160 0 160 25 0 c22 0 25 4 25 35 0 31 -3 35 -25 35 -24 0 -25 2
-25 75 0 73 1 75 25 75 23 0 25 4 25 40 0 36 -2 40 -25 40 -24 0 -25 2 -25 75
0 73 1 75 25 75 22 0 25 4 25 35 0 31 -3 35 -25 35 -25 0 -25 0 -25 98 1 78
-9 147 -52 356 -34 169 -55 252 -60 240 -19 -50 -108 -531 -108 -589 l0 -65
-35 0 c-30 0 -35 4 -40 28 -20 94 -30 124 -62 184 -43 83 -144 181 -226 221
-31 15 -88 35 -127 43 l-70 16 0 89 0 89 -35 0 -35 0 0 -90 0 -89 -37 -6
c-226 -38 -403 -205 -443 -419 l-12 -66 -39 0 -39 0 0 83 c0 99 -98 604 -112
571 -4 -10 -30 -134 -58 -274 -36 -182 -50 -279 -50 -337 l0 -83 -30 0 c-28 0
-30 -3 -30 -35 0 -32 2 -35 30 -35 l30 0 0 -74 c0 -74 0 -75 -27 -78 -25 -3
-28 -7 -28 -38 0 -31 3 -35 28 -38 27 -3 27 -4 27 -78 l0 -74 -30 0 c-28 0
-30 -3 -30 -35 0 -32 2 -35 30 -35 l30 0 0 -160 0 -160 -25 0 c-21 0 -31 12
-60 70 l-35 70 0 447 0 448 -54 260 c-29 143 -56 253 -59 245z m1123 -251
c187 -29 353 -189 376 -362 l7 -47 -445 0 c-245 0 -447 3 -450 6 -3 3 0 29 6
58 45 193 221 340 426 355 8 0 44 -4 80 -10z m-741 -351 l1 -98 -36 0 -36 0 5
128 c3 70 11 150 18 177 l12 50 18 -80 c10 -45 18 -123 18 -177z m1421 -5 l0
-93 -36 0 -36 0 5 128 c3 70 11 150 18 177 l12 50 18 -85 c10 -47 18 -127 19
-177z m-1760 -6 l0 -88 -37 3 -38 3 -3 73 c-3 64 17 206 35 252 11 27 42 -153
43 -243z m2110 0 l0 -88 -37 3 -38 3 -3 73 c-3 64 17 206 35 252 11 27 42
-153 43 -243z m-500 -448 l0 -330 -26 20 c-15 12 -33 21 -40 21 -10 0 -14 32
-16 143 l-3 142 -43 1 c-41 1 -46 4 -90 62 -56 74 -131 132 -210 164 -48 19
-76 23 -172 23 -112 0 -117 -1 -190 -36 -90 -44 -146 -90 -193 -162 -35 -52
-35 -52 -81 -49 l-46 4 0 -140 0 -139 -40 -27 c-22 -14 -42 -26 -45 -26 -3 0
-5 149 -5 330 l0 330 600 0 600 0 0 -331z m-1610 216 l0 -75 -40 0 -40 0 0 68
c0 38 3 72 7 75 3 4 21 7 40 7 l33 0 0 -75z m340 0 l0 -75 -35 0 -35 0 0 75 0
75 35 0 35 0 0 -75z m1420 0 l0 -75 -35 0 -35 0 0 75 0 75 35 0 35 0 0 -75z
m350 0 l0 -75 -40 0 -40 0 0 68 c0 38 3 72 7 75 3 4 21 7 40 7 l33 0 0 -75z
m-1132 -171 l-3 -46 -53 -2 c-29 0 -52 3 -52 9 0 23 51 117 77 142 l28 28 3
-42 c2 -23 2 -63 0 -89z m165 2 l15 -44 -50 -4 c-27 -1 -52 -1 -54 1 -2 2 -4
43 -4 90 l1 86 39 -43 c21 -23 45 -62 53 -86z m-319 47 c-13 -27 -24 -56 -24
-65 0 -9 -5 -20 -11 -24 -13 -8 -97 -10 -101 -2 -8 14 128 138 151 138 5 0 -2
-21 -15 -47z m404 23 c37 -23 112 -99 112 -114 0 -4 -23 -6 -52 -6 -51 2 -52
2 -63 40 -6 22 -19 54 -29 72 -20 38 -17 39 32 8z m-3309 -72 c12 -15 21 -37
21 -49 0 -27 -33 -71 -59 -80 -47 -15 -109 42 -97 90 17 66 96 89 135 39z
m577 3 c16 -14 27 -33 27 -50 0 -32 -28 -77 -47 -77 -8 0 -21 -2 -29 -6 -8 -3
-28 7 -46 21 -39 34 -42 75 -6 110 30 31 66 32 101 2z m1504 -63 l0 -75 -37 3
-38 3 -3 73 -3 72 41 0 40 0 0 -76z m340 1 l0 -75 -35 0 -35 0 0 75 0 75 35 0
35 0 0 -75z m1420 0 l0 -75 -35 0 -35 0 0 75 0 75 35 0 35 0 0 -75z m350 -1
l0 -75 -37 3 -38 3 -3 73 -3 72 41 0 40 0 0 -76z m-650 -159 l0 -95 -34 0
c-45 0 -109 -23 -150 -55 -34 -26 -86 -110 -86 -139 0 -12 -9 -16 -35 -16
l-35 0 0 58 c0 75 -25 117 -78 133 -33 9 -45 9 -74 -5 -47 -23 -68 -62 -68
-131 0 -55 -1 -56 -27 -53 -21 2 -29 11 -41 47 -29 86 -135 161 -229 161 l-33
0 0 95 0 95 445 0 445 0 0 -95z m-3101 10 c396 -91 678 -397 742 -805 16 -106
5 -274 -26 -381 -29 -103 -62 -179 -76 -179 -14 0 -69 32 -69 40 0 4 14 44 30
90 142 387 -2 809 -351 1033 -219 140 -524 167 -777 69 -136 -53 -290 -174
-377 -297 -279 -394 -190 -931 200 -1207 140 -99 275 -145 455 -155 134 -7
250 12 364 58 39 16 71 27 71 26 1 -1 12 -19 24 -39 l22 -37 -28 -14 c-174
-89 -440 -116 -638 -65 -221 58 -383 163 -527 343 -220 274 -262 693 -101
1010 146 289 413 480 735 525 82 11 243 4 327 -15z m1641 -100 c0 -93 3 -112
25 -155 14 -27 25 -52 25 -55 0 -3 -40 -5 -90 -5 -49 0 -90 2 -90 5 0 3 11 28
25 55 22 43 25 63 25 148 0 54 3 102 7 105 3 4 21 7 40 7 l33 0 0 -105z m340
-55 l0 -160 -35 0 -35 0 0 160 0 160 35 0 35 0 0 -160z m1420 0 l0 -160 -35 0
-35 0 0 160 0 160 35 0 35 0 0 -160z m350 55 c0 -93 3 -112 25 -155 14 -27 25
-52 25 -55 0 -3 -40 -5 -90 -5 -49 0 -90 2 -90 5 0 3 11 28 25 55 22 43 25 63
25 148 0 54 3 102 7 105 3 4 21 7 40 7 l33 0 0 -105z m-4697 14 c25 -30 22
-75 -8 -104 -39 -40 -93 -29 -118 23 -18 37 -11 68 21 93 32 25 78 20 105 -12z
m1591 5 c34 -34 34 -77 1 -109 -30 -31 -66 -32 -101 -2 -20 17 -27 33 -27 57
0 24 7 40 27 57 35 30 67 29 100 -3z m4746 -19 c85 -21 164 -38 174 -39 14 -1
22 10 30 39 7 22 15 40 20 39 9 -1 156 -114 156 -120 0 -2 -18 -13 -40 -24
-22 -11 -40 -24 -40 -29 0 -5 36 -84 81 -175 55 -115 78 -173 74 -187 -4 -12
-13 -18 -20 -15 -10 3 -600 474 -649 517 -15 13 15 41 38 36 12 -3 91 -22 176
-42z m-5644 -368 c1 -291 1 -298 -19 -309 -19 -10 -41 9 -229 201 -114 116
-208 214 -208 217 0 22 154 116 235 144 73 26 173 49 200 47 19 -2 20 -10 21
-300z m199 288 c88 -14 282 -107 355 -172 2 -2 -90 -98 -205 -214 -152 -152
-216 -209 -230 -207 -19 3 -20 12 -23 306 l-2 303 32 -5 c18 -3 51 -8 73 -11z
m5245 -10 l24 -25 -22 -22 -22 -22 -24 23 c-24 23 -24 24 -8 47 21 29 23 29
52 -1z m-2895 2 c53 -21 97 -62 109 -104 l7 -23 -180 0 -181 0 11 28 c32 85
146 133 234 99z m853 -2 c20 -9 47 -26 60 -38 22 -20 52 -68 52 -82 0 -3 -81
-5 -180 -5 -99 0 -180 2 -180 5 0 14 30 62 52 82 54 50 130 65 196 38z m-470
-17 c7 -7 12 -34 12 -61 l0 -48 -37 3 c-36 3 -38 5 -41 40 -5 63 32 100 66 66z
m2705 -303 c169 -136 307 -251 307 -256 0 -14 -49 -22 -70 -13 -11 5 -143 109
-294 231 -222 180 -276 228 -281 252 -8 35 1 56 18 43 7 -5 150 -120 320 -257z
m-85 236 c27 -24 28 -33 2 -56 -20 -18 -21 -18 -47 8 -26 26 -26 27 -8 47 22
24 24 24 53 1z m132 -110 c-1 -3 -10 -17 -21 -30 l-20 -25 -26 27 c-25 25 -26
26 -9 51 l17 26 29 -22 c17 -12 30 -24 30 -27z m-3230 -300 l0 -298 -45 -6
c-25 -4 -56 -9 -70 -13 -24 -6 -25 -5 -25 49 0 68 -31 113 -87 123 -82 15
-133 -45 -133 -160 0 -62 -2 -67 -26 -76 -14 -6 -27 -10 -30 -10 -2 0 -4 36
-4 79 0 97 -10 125 -52 151 -39 24 -69 25 -108 5 -46 -24 -60 -62 -60 -165 l0
-90 78 -1 77 0 -109 -39 c-60 -22 -112 -37 -117 -34 -5 3 -9 180 -9 395 l0
389 360 0 360 0 0 -299z m850 9 l0 -290 -32 0 c-18 0 -50 3 -70 6 -34 6 -38
10 -38 35 0 17 -11 41 -27 59 -58 65 -159 43 -184 -40 -10 -34 -16 -40 -39
-40 -23 0 -29 5 -34 30 -7 37 -45 77 -80 86 -59 14 -123 -27 -132 -86 -6 -34
-10 -38 -43 -44 -20 -3 -51 -6 -68 -6 l-33 0 0 290 0 290 390 0 390 0 0 -290z
m780 -106 c0 -372 -1 -395 -17 -390 -10 3 -61 21 -113 40 l-95 35 78 1 79 0
-4 104 c-3 94 -5 107 -27 130 -48 51 -135 42 -172 -18 -15 -24 -19 -50 -19
-113 0 -46 -2 -83 -4 -83 -3 0 -16 4 -30 10 -24 9 -26 14 -26 75 0 36 -7 81
-14 100 -30 72 -129 85 -180 24 -21 -25 -26 -41 -26 -85 0 -30 -3 -54 -7 -54
-5 1 -35 6 -68 13 l-60 13 -3 297 -2 297 355 0 355 0 0 -396z m-4196 -87 c-6
-15 -33 -17 -305 -17 l-299 0 0 28 c1 96 63 261 141 373 l43 60 213 -213 c161
-161 212 -218 207 -231z m778 390 c48 -70 79 -129 105 -202 20 -54 43 -157 43
-192 0 -11 -56 -13 -302 -11 -288 3 -303 4 -306 22 -3 14 54 77 204 227 115
115 211 209 214 209 3 0 22 -24 42 -53z m5128 3 c0 -4 -9 -15 -21 -26 -15 -13
-24 -16 -36 -8 -32 20 -38 41 -19 63 l18 20 29 -21 c16 -12 29 -25 29 -28z
m-425 15 l30 -25 -35 -67 c-19 -38 -47 -90 -62 -117 -16 -26 -52 -92 -80 -145
-28 -53 -66 -124 -85 -159 -43 -79 -46 -117 -9 -149 15 -12 37 -23 50 -23 29
0 105 57 231 171 55 50 69 62 199 172 l90 75 33 -26 33 -27 -23 -20 c-12 -12
-80 -70 -152 -130 -316 -264 -383 -324 -498 -440 -49 -49 -123 -131 -164 -182
-42 -51 -77 -93 -80 -93 -10 0 -163 124 -163 132 0 5 26 42 58 81 147 181 302
441 511 855 40 78 75 142 79 142 4 -1 21 -12 37 -25z m506 -76 c28 -19 28 -21
13 -45 -20 -29 -24 -30 -58 -3 -25 20 -25 21 -8 44 21 30 18 29 53 4z m-279
-108 c26 -20 46 -40 44 -46 -1 -5 -14 -16 -28 -24 -23 -14 -28 -11 -110 54
l-86 69 16 32 15 33 51 -41 c28 -22 72 -57 98 -77z m-6587 54 c31 -30 32 -66
2 -101 -60 -69 -164 5 -121 87 23 46 81 53 119 14z m2173 9 c50 -35 44 -106
-11 -129 -77 -32 -142 62 -85 122 25 27 64 30 96 7z m4801 -43 c24 -18 24 -20
7 -45 -17 -27 -25 -27 -58 2 -16 13 -16 16 -1 38 18 29 21 29 52 5z m-511 -95
c34 -27 62 -53 62 -56 0 -16 -40 -41 -52 -34 -11 6 -89 67 -122 95 -13 12 22
61 37 52 7 -4 40 -29 75 -57z m-89 -97 l52 -42 -22 -23 c-22 -23 -22 -23 -48
-4 -74 55 -73 54 -60 83 7 15 15 27 19 27 4 0 31 -19 59 -41z m-5276 -70 c31
-39 21 -91 -24 -114 -39 -20 -52 -19 -83 10 -55 51 -18 143 54 131 19 -3 43
-15 53 -27z m5204 -43 c22 -18 22 -21 6 -38 -20 -23 -32 -22 -62 1 -23 17 -23
21 -11 50 14 34 15 33 67 -13z m-3362 18 c11 -12 15 -30 13 -63 -3 -45 -3 -46
-38 -46 -35 0 -35 1 -38 46 -3 45 14 79 38 79 5 0 16 -7 25 -16z m276 6 c25
-14 28 -104 3 -114 -44 -17 -54 -8 -54 47 0 29 5 58 12 65 15 15 15 15 39 2z
m573 -6 c25 -25 19 -34 -24 -34 -22 0 -40 4 -40 9 0 12 29 41 40 41 5 0 16 -7
24 -16z m277 6 c32 -18 23 -40 -16 -40 -36 0 -46 15 -23 38 15 15 15 15 39 2z
m567 -2 c7 -7 12 -36 12 -65 0 -46 -3 -53 -19 -53 -41 0 -51 11 -51 55 0 58
30 91 58 63z m287 -4 c11 -12 15 -30 13 -63 -3 -45 -3 -46 -38 -46 -34 0 -35
1 -38 44 -2 30 2 49 14 62 21 23 28 24 49 3z m-4044 -86 c5 -7 9 -15 9 -18 0
-3 -95 -100 -211 -215 l-210 -210 -35 40 c-36 42 -102 168 -127 246 -9 25 -19
73 -23 107 l-6 61 53 3 c30 2 164 2 298 1 189 -1 246 -5 252 -15z m877 12 l54
0 -7 -52 c-9 -65 -38 -165 -59 -206 l-17 -32 -32 16 c-18 10 -63 36 -102 59
-204 121 -245 145 -252 145 -4 0 -32 16 -61 35 -52 32 -53 34 -25 37 15 2 123
2 238 1 116 -1 234 -2 263 -3z m4472 -46 c0 -10 -44 -43 -57 -44 -17 0 -16 16
3 45 13 20 20 23 35 14 10 -5 19 -12 19 -15z m-4935 -104 c50 -29 108 -63 130
-75 153 -85 250 -144 253 -154 5 -15 -195 -214 -208 -206 -6 4 -22 27 -35 53
-26 49 -46 84 -81 142 -76 126 -165 280 -171 296 -5 16 -4 17 8 7 8 -6 55 -35
104 -63z m-296 -265 c-1 -162 -4 -297 -8 -300 -11 -6 -180 30 -231 51 -60 24
-147 76 -190 113 l-35 30 211 211 c192 192 214 211 233 201 20 -11 20 -18 20
-306z m176 147 c36 -64 93 -162 125 -217 89 -149 87 -145 67 -160 -38 -27
-257 -81 -272 -67 -10 10 -5 573 4 567 5 -3 39 -58 76 -123z m-1198 98 c31
-11 53 -45 53 -81 0 -30 -44 -69 -79 -69 -40 0 -85 52 -76 89 8 32 23 51 50
61 11 5 20 9 21 9 1 1 15 -4 31 -9z m2216 -17 c28 -26 23 -87 -9 -112 -71 -56
-156 20 -113 100 21 40 83 46 122 12z m-382 -260 c36 -21 36 -27 2 -72 -61
-81 -222 -231 -247 -231 -3 0 -15 18 -26 39 l-19 39 67 55 c38 30 92 85 122
121 29 36 58 66 63 66 5 0 22 -8 38 -17z m187 -112 l64 -39 -36 -27 -36 -27
-35 31 c-20 17 -42 31 -50 31 -8 0 -15 3 -15 6 0 9 34 64 40 64 3 0 33 -18 68
-39z m-1704 -132 c42 -33 35 -99 -15 -124 -39 -21 -56 -19 -84 10 -50 49 -17
135 50 135 12 0 34 -9 49 -21z m1594 5 c12 -8 22 -21 22 -28 0 -8 -24 -34 -54
-60 l-54 -46 -22 30 c-49 69 38 153 108 104z m6467 -133 c38 -16 71 -34 73
-40 2 -6 -9 -43 -24 -82 -24 -60 -33 -72 -62 -85 -47 -19 -48 -19 -61 17 -13
38 -10 43 29 59 23 9 29 17 24 29 -3 9 -9 24 -12 34 -3 13 -11 17 -26 13 -62
-18 -62 -18 -74 9 -17 38 -15 43 21 59 42 19 33 20 112 -13z m-6675 10 c0 -4
11 -25 25 -45 26 -38 24 -58 -8 -85 -12 -10 -19 -6 -36 18 -12 17 -27 44 -33
61 -9 26 -8 33 8 45 21 16 44 19 44 6z m6497 -159 c35 -84 63 -155 61 -157 -1
-2 -47 -21 -101 -44 l-98 -40 -22 52 c-52 119 -111 267 -106 270 15 12 176 75
187 74 7 -1 43 -71 79 -155z m-278 -112 c45 -107 81 -199 81 -205 0 -9 -282
-130 -303 -130 -6 0 -22 29 -37 65 -14 36 -53 127 -84 203 -32 76 -56 140 -53
143 13 13 303 130 309 125 3 -3 43 -94 87 -201z m-7122 110 c30 -11 53 -45 53
-79 0 -26 -49 -71 -77 -71 -29 0 -83 50 -83 77 0 25 27 63 54 73 11 5 21 9 22
9 1 1 15 -4 31 -9z m607 -11 c37 -29 37 -89 0 -118 -15 -12 -37 -21 -49 -21
-36 0 -75 37 -75 71 0 76 67 113 124 68z m6125 -263 c61 -147 111 -272 111
-276 0 -4 -24 -18 -52 -30 -29 -12 -71 -30 -93 -40 -189 -85 -749 -310 -755
-303 -4 4 -26 53 -50 108 -45 108 -154 321 -197 386 -14 21 -23 42 -20 45 14
14 933 392 938 386 3 -4 56 -128 118 -276z m-7932 -395 c54 -11 197 -38 318
-62 121 -23 221 -43 222 -44 3 -2 -18 -118 -22 -123 -1 -1 -60 9 -131 23 -154
31 -222 29 -302 -12 -152 -77 -220 -268 -148 -413 61 -122 123 -163 300 -197
72 -14 137 -27 145 -29 10 -3 12 -15 6 -50 -12 -85 -7 -84 -170 -49 -38 8
-133 26 -210 40 -254 47 -285 55 -285 74 0 9 24 140 54 291 29 151 66 341 82
423 15 81 31 147 35 147 4 0 52 -9 106 -19z m-341 -51 c55 -11 104 -22 110
-24 7 -3 -5 -87 -37 -258 -78 -403 -77 -401 -102 -395 -12 3 -65 13 -117 23
-52 10 -96 19 -98 20 -2 1 17 105 41 230 25 126 53 273 63 326 11 56 24 98 30
98 7 0 56 -9 110 -20z m-353 -22 c98 -17 127 -26 127 -38 -1 -27 -87 -460 -93
-466 -8 -8 -244 41 -287 60 -54 23 -134 106 -118 122 3 2 29 -6 59 -17 84 -33
106 -35 113 -10 3 12 8 30 12 41 4 16 -4 22 -53 36 -85 25 -164 79 -149 103
11 17 108 34 171 28 58 -4 64 -3 69 17 16 58 10 64 -59 71 -35 4 -76 4 -90 1
-32 -8 -32 1 2 28 65 51 117 56 296 24z m8476 -102 c17 -40 64 -152 104 -248
96 -225 93 -212 62 -226 -14 -7 -31 -12 -38 -12 -11 0 -227 501 -227 526 0 8
38 29 62 33 3 1 20 -32 37 -73z m-6899 4 c188 -36 402 -77 578 -111 28 -6 52
-11 52 -13 0 -1 -15 -47 -34 -102 -64 -190 -120 -470 -132 -654 -4 -54 -10
-103 -14 -109 -4 -8 -45 -4 -136 14 -71 14 -201 39 -289 56 -264 51 -409 80
-428 85 -14 4 -17 12 -13 32 9 45 116 601 133 692 27 146 31 158 51 154 9 -2
114 -22 232 -44z m6757 -77 c18 -42 31 -78 29 -80 -1 -2 -56 18 -120 43 -64
26 -114 49 -111 52 10 10 160 70 164 66 2 -2 19 -38 38 -81z m-7268 -44 c64
-12 119 -24 123 -28 4 -4 4 -22 -1 -41 -5 -19 -21 -102 -36 -185 -15 -82 -31
-167 -37 -188 -10 -43 6 -43 -182 -5 -112 21 -105 19 -163 66 -97 78 -104 241
-14 332 72 73 129 82 310 49z m7055 -30 c56 -22 119 -48 141 -58 22 -10 61
-26 88 -36 26 -10 47 -19 47 -20 0 -8 -153 -372 -159 -378 -9 -9 -218 -97
-231 -97 -4 0 -12 33 -19 73 -19 119 -61 296 -93 395 -16 52 -27 97 -23 100 8
8 127 60 139 61 5 1 55 -17 110 -40z m1881 -114 c42 -19 75 -39 73 -43 -2 -4
-14 -36 -27 -70 -24 -62 -43 -83 -88 -96 -18 -6 -25 -1 -38 24 -16 32 -13 50
9 50 7 0 20 6 29 13 15 10 16 17 6 45 -13 37 -10 36 -55 17 l-35 -14 -15 35
c-17 42 -19 38 26 57 19 9 36 16 36 16 1 1 36 -15 79 -34z m-187 -135 c34 -83
62 -154 62 -159 0 -9 -190 -94 -196 -88 -9 9 -133 312 -129 316 8 7 178 79
190 80 6 1 39 -67 73 -149z m-317 -22 c23 -57 62 -148 85 -203 24 -55 40 -103
36 -107 -8 -8 -291 -128 -302 -128 -4 0 -35 69 -70 153 -35 83 -74 176 -87
205 -14 30 -23 56 -21 58 10 9 285 123 299 123 12 1 29 -29 60 -101z m-1011
-21 c18 -44 29 -82 24 -87 -13 -12 -156 -71 -161 -66 -2 2 0 12 6 23 6 10 22
47 36 83 35 86 56 132 60 128 1 -2 17 -38 35 -81z m664 -247 c63 -151 111
-278 108 -282 -4 -4 -176 -77 -382 -163 -206 -87 -472 -198 -590 -247 -118
-49 -230 -96 -248 -104 l-34 -14 8 53 c9 56 10 78 13 202 1 45 5 74 9 67 7 -9
25 -5 83 19 41 17 84 35 96 40 21 8 22 11 11 36 -6 15 -15 32 -18 36 -4 4 -44
-8 -89 -28 -46 -19 -85 -35 -87 -35 -3 0 -4 23 -2 51 l3 51 60 24 c33 14 63
28 67 32 4 4 2 22 -4 40 -14 35 -20 35 -92 1 -22 -10 -40 -18 -42 -16 -1 1 -4
24 -5 51 l-4 49 320 134 c176 74 336 140 355 148 19 7 103 42 185 78 83 35
153 61 157 58 4 -3 59 -130 122 -281z m-2454 80 c97 -18 151 -81 169 -197 18
-116 -24 -265 -120 -424 -81 -135 -108 -156 -201 -157 -69 0 -96 17 -126 82
-33 69 -43 154 -32 271 19 195 74 354 132 381 18 9 49 24 68 35 41 22 41 22
110 9z m-799 -27 c0 -27 1 -27 9 -5 11 25 30 30 30 7 0 -8 4 -15 10 -15 29 0
27 -40 -11 -189 -21 -84 -46 -194 -54 -244 -9 -51 -22 -111 -29 -133 l-14 -42
52 14 c28 8 65 14 81 14 29 -1 29 -1 11 -15 -18 -14 -14 -15 41 -9 49 5 67 3
92 -12 40 -24 39 -30 -5 -38 -19 -4 -44 -18 -56 -31 -11 -13 -45 -33 -74 -44
-30 -12 -78 -30 -108 -42 -30 -11 -64 -31 -76 -44 -40 -42 -137 -24 -101 19 9
11 6 12 -14 8 -22 -4 -25 -1 -25 25 0 21 12 41 44 72 42 41 44 46 30 65 -32
46 -13 220 52 476 42 162 55 190 90 190 19 0 24 -5 25 -27z m-1293 -17 c48
-55 63 -143 69 -401 5 -216 -2 -286 -27 -270 -6 3 -10 -5 -10 -19 0 -14 -8
-41 -17 -61 -16 -33 -18 -34 -35 -18 -10 9 -18 21 -18 28 0 7 -9 22 -20 35
-11 13 -25 41 -31 63 l-10 39 -62 -7 c-34 -3 -67 -11 -73 -16 -6 -5 -14 -6
-17 -2 -4 3 -7 -2 -7 -12 0 -26 -42 -85 -60 -84 -21 0 -56 48 -68 93 -22 78
38 296 135 494 69 140 98 166 194 171 19 1 36 -9 57 -33z m-955 13 c21 -5 52
-23 69 -38 l32 -28 -60 -38 c-32 -21 -74 -43 -92 -48 -26 -8 -34 -18 -43 -50
-27 -101 -41 -205 -48 -355 -8 -153 -10 -165 -38 -219 -16 -31 -35 -59 -41
-61 -6 -2 -28 23 -49 54 l-38 58 1 155 c1 86 7 185 13 220 6 36 9 67 7 69 -3
2 -14 -2 -26 -8 -18 -9 -25 -8 -40 5 -14 13 -19 13 -23 3 -3 -10 -9 -10 -23
-2 -49 28 -48 103 1 154 23 24 117 76 200 111 21 9 107 26 140 28 11 0 37 -4
58 -10z m1555 -58 c15 -78 8 -111 -68 -316 -62 -166 -132 -308 -167 -335 -29
-22 -119 -28 -154 -10 -56 30 -85 171 -75 360 16 282 22 332 41 346 27 20 65
18 66 -3 1 -17 2 -17 6 0 6 22 16 22 38 -3 22 -24 24 -82 12 -325 l-8 -160 19
35 c11 19 50 117 87 218 63 171 70 185 113 223 25 22 53 38 61 37 11 -2 20
-24 29 -67z m1112 59 c0 -5 6 -9 12 -7 7 1 21 -15 31 -36 19 -38 19 -39 -12
-260 -18 -122 -39 -247 -47 -277 -15 -54 -83 -190 -95 -190 -15 0 -32 62 -37
130 -2 41 -9 78 -14 81 -11 7 51 472 64 477 4 2 8 16 8 32 0 16 7 36 16 44 17
18 74 22 74 6z m-970 -17 c0 -15 1 -15 13 1 11 15 18 17 33 8 11 -6 52 -8 105
-5 85 6 159 -7 159 -28 0 -6 -5 -7 -10 -4 -6 4 -40 3 -76 -1 -87 -9 -65 -21
43 -23 85 -1 113 -10 113 -37 0 -17 -55 -31 -160 -40 -47 -4 -96 -11 -110 -15
-25 -9 44 -5 135 7 36 4 38 3 22 -9 -9 -8 -56 -19 -104 -26 -47 -6 -87 -12
-89 -13 -1 -2 -5 -20 -9 -42 l-8 -38 50 7 c55 7 106 -3 181 -38 l47 -21 -60
-6 -60 -7 63 -1 c36 -1 61 -6 57 -11 -3 -6 -29 -23 -58 -40 -41 -23 -74 -33
-147 -42 -52 -6 -98 -13 -102 -16 -5 -2 -8 -42 -8 -88 l0 -84 108 5 c59 3 122
10 140 16 18 5 36 7 40 3 13 -12 -41 -94 -87 -133 -59 -49 -97 -62 -185 -62
-95 0 -126 20 -169 110 -31 66 -28 222 7 390 17 82 23 127 16 134 -17 17 -11
54 13 71 12 8 20 17 17 19 -7 6 56 76 69 76 6 0 11 -8 11 -17z m-1235 -22 c83
-37 128 -124 111 -216 -8 -40 -106 -168 -160 -210 -44 -34 -45 -43 -3 -48 25
-3 22 -4 -15 -5 -26 -1 -50 -6 -53 -12 -4 -6 24 -10 76 -10 71 0 86 -3 106
-22 42 -40 32 -45 -104 -50 -179 -8 -221 -28 -55 -27 68 1 126 -1 129 -5 14
-14 -56 -26 -147 -26 -107 0 -147 -10 -157 -37 -25 -74 -58 -134 -72 -131 -20
4 -70 86 -81 133 -14 64 28 490 60 608 10 35 50 74 67 64 4 -3 40 1 78 8 82
16 164 10 220 -14z m-3181 -697 c22 -21 19 -40 -12 -104 -24 -48 -31 -55 -56
-55 -40 0 -53 24 -38 72 27 89 69 124 106 87z m-243 -25 c36 -16 48 -26 45
-38 -18 -58 -17 -73 4 -117 18 -37 32 -51 68 -66 63 -28 106 -18 157 37 l40
43 50 -25 c28 -14 52 -27 54 -29 3 -2 -6 -25 -18 -52 l-22 -47 -128 -48 c-70
-26 -132 -47 -137 -47 -12 0 -275 119 -287 129 -6 6 111 281 120 281 3 0 27
-10 54 -21z m1353 -45 c3 -9 6 -28 6 -44 0 -24 -6 -31 -45 -46 -50 -19 -51
-20 -30 -70 12 -28 19 -35 32 -29 57 24 56 25 83 -109 14 -69 24 -126 23 -126
-2 0 -50 40 -107 90 l-102 89 -367 -138 -367 -139 -96 69 c-92 65 -95 69 -73
79 37 16 1023 389 1030 389 4 1 10 -6 13 -15z m-114 -390 c22 -20 40 -40 40
-43 0 -4 -15 -12 -32 -18 -18 -6 -154 -57 -301 -113 l-269 -101 -49 33 c-26
18 -47 37 -46 42 3 8 579 232 604 235 7 0 31 -15 53 -35z m-989 -82 c212 -152
544 -393 605 -439 16 -12 27 -23 24 -25 -3 -2 -81 -32 -173 -66 -185 -68 -251
-77 -338 -47 -42 15 -516 318 -531 340 -23 32 -1 134 36 164 15 13 282 118
301 120 6 0 40 -21 76 -47z m1203 -55 l14 -46 -47 -17 c-25 -10 -61 -23 -80
-31 -32 -12 -35 -12 -71 19 -21 18 -39 36 -39 39 -1 4 38 21 87 38 48 17 94
36 102 41 18 11 17 12 34 -43z m6066 -84 c85 -36 159 -70 164 -74 13 -12 -64
-229 -82 -229 -7 0 -39 7 -70 16 -46 12 -329 94 -379 109 -19 6 6 75 28 75 12
0 19 11 24 37 4 22 3 39 -3 41 -5 1 0 33 12 71 l21 69 65 -24 c36 -14 135 -55
220 -91z m-6320 -52 l64 -58 -59 -20 c-33 -12 -109 -40 -168 -63 l-109 -41
-51 36 c-79 54 -102 73 -97 78 3 3 66 28 140 56 74 29 144 56 155 61 39 17 61
9 125 -49z m6668 -6 c2 -2 -79 -239 -114 -332 -16 -40 -17 -41 -48 -31 -17 6
-33 12 -35 14 -3 2 84 258 120 351 7 20 11 21 41 11 18 -6 34 -12 36 -13z
m551 -110 c141 -49 216 -214 162 -356 -40 -105 -144 -179 -253 -179 -159 0
-276 113 -279 271 -3 123 68 224 186 267 44 15 136 14 184 -3z m-441 -26 l50
-21 -21 -46 c-11 -26 -26 -69 -32 -95 -6 -26 -15 -48 -20 -48 -31 0 -105 25
-105 34 0 19 64 197 71 197 3 0 29 -9 57 -21z m-7961 -137 c65 -43 136 -90
159 -104 l41 -26 -35 -164 c-19 -89 -38 -167 -42 -171 -4 -5 -56 -2 -116 5
l-109 14 1 34 c0 19 4 85 8 145 8 104 -8 271 -29 328 -4 9 -5 17 -2 17 3 0 59
-35 124 -78z m1736 -280 l59 -97 -16 -50 c-66 -219 -32 -437 100 -621 170
-238 508 -345 785 -248 36 12 38 11 130 -49 51 -34 95 -67 96 -72 2 -6 -27
-19 -64 -29 -38 -10 -151 -43 -253 -71 -102 -29 -211 -60 -242 -68 l-58 -15
-26 31 c-15 18 -83 93 -153 167 -70 74 -196 209 -281 300 -84 91 -181 194
-214 230 -34 36 -76 82 -95 102 l-34 37 99 276 c54 151 101 275 104 275 3 0
31 -44 63 -98z m6998 77 c35 -12 68 -25 73 -29 4 -5 3 -24 -3 -43 l-12 -34
-74 26 c-40 15 -76 29 -79 32 -8 7 13 69 23 69 4 0 36 -10 72 -21z m-1548
-299 c214 -225 231 -246 267 -325 22 -47 36 -85 32 -85 -7 0 -90 86 -424 441
l-157 166 22 21 c12 12 24 22 27 22 3 0 108 -108 233 -240z m-166 -27 c81 -87
208 -220 281 -296 l133 -139 -108 -101 c-59 -56 -160 -151 -223 -212 -63 -61
-189 -180 -280 -265 -91 -85 -222 -210 -292 -277 l-128 -122 -167 177 c-92 97
-219 230 -281 295 l-115 118 44 27 c71 45 75 47 51 20 -23 -25 -23 -27 -7 -52
10 -14 20 -26 23 -26 4 0 25 19 49 42 l43 42 -22 23 -22 23 25 17 c13 10 65
48 114 85 l90 68 44 -47 c172 -185 265 -273 299 -283 53 -14 148 -11 217 8 49
14 62 23 74 47 41 85 53 236 23 292 -9 17 -60 76 -112 130 -53 54 -117 121
-142 148 l-47 51 65 79 c36 44 97 126 137 183 39 56 74 102 78 102 4 0 74 -71
156 -157z m-5091 -40 c159 -212 371 -424 581 -582 121 -91 120 -93 -48 -99
-125 -5 -180 6 -283 53 -252 115 -399 405 -345 679 7 31 15 53 19 49 5 -4 39
-49 76 -100z m-1973 20 c7 -12 -20 -184 -31 -195 -4 -4 -72 -40 -151 -78 -139
-68 -143 -69 -201 -63 -33 3 -60 9 -60 13 0 18 57 54 185 116 77 37 143 72
147 77 3 6 9 35 13 66 4 31 9 59 12 64 2 4 22 7 43 7 21 0 41 -3 43 -7z m6594
-260 c4 -12 -95 -98 -104 -90 -7 8 80 107 91 103 6 -1 11 -7 13 -13z m-5087
-30 c35 -40 359 -389 496 -533 145 -152 244 -262 244 -269 0 -15 -51 -54 -58
-45 -8 9 -44 47 -297 319 -232 249 -428 459 -454 487 l-25 28 24 25 c13 14 27
25 31 25 4 0 22 -17 39 -37z m5206 -88 l57 -66 -43 -44 c-24 -25 -50 -45 -56
-45 -7 0 -38 28 -68 62 l-56 62 47 48 c26 26 50 48 54 48 4 0 33 -29 65 -65z
m-314 -77 c-31 -29 -57 -46 -63 -42 -8 5 6 24 39 56 31 29 57 46 63 42 8 -5
-6 -24 -39 -56z m-6767 12 c31 -35 8 -62 -77 -93 -40 -15 -76 -27 -80 -27 -8
0 -33 78 -27 84 9 8 135 54 150 55 9 1 24 -8 34 -19z m6928 -83 l56 -64 -50
-49 -49 -48 -60 59 c-33 33 -60 64 -60 69 0 10 90 95 101 96 4 0 32 -29 62
-63z m1196 -185 c116 -123 211 -226 211 -230 0 -4 -54 -58 -119 -120 l-119
-112 -174 183 c-96 100 -197 207 -225 237 l-51 54 121 117 c92 88 125 114 133
106 6 -7 107 -112 223 -235z m-6209 141 c0 -11 -214 -437 -227 -452 -2 -3 -20
11 -40 32 l-37 36 56 118 c31 65 77 170 103 233 26 63 49 119 52 123 7 11 93
-73 93 -90z m-2235 75 c14 -6 35 -27 46 -45 28 -45 21 -109 -15 -140 -22 -18
-30 -20 -68 -12 -73 16 -138 40 -138 51 0 14 57 107 83 136 23 24 53 28 92 10z
m7552 -52 c17 -33 14 -159 -4 -177 -6 -6 -34 16 -77 62 l-68 71 54 48 c58 52
66 52 95 -4z m-5075 -274 c84 -88 100 -112 78 -112 -5 0 -111 -43 -235 -96
-185 -79 -228 -94 -240 -84 -8 7 -15 17 -15 23 0 5 52 111 116 235 l117 225
45 -49 c26 -27 86 -91 134 -142z m4947 107 c35 -38 60 -73 57 -77 -16 -15
-143 -14 -173 1 -60 32 -61 43 -8 97 27 28 52 50 55 50 3 0 34 -32 69 -71z
m526 -318 c28 -130 51 -237 50 -238 -1 -3 -479 129 -484 134 -6 5 119 132 143
145 17 9 29 0 90 -67 l71 -77 24 26 25 27 -75 75 -74 76 85 79 c47 44 87 74
89 68 2 -6 27 -118 56 -248z m-1301 52 c238 -249 441 -466 430 -462 -6 2 -46
22 -88 44 -62 32 -94 58 -164 135 -48 52 -152 162 -231 244 -143 147 -144 149
-120 162 13 7 28 13 32 14 5 0 68 -62 141 -137z m-4537 -271 l96 -103 -27 -27
-27 -27 -62 65 c-34 37 -117 125 -184 196 l-122 130 27 28 27 27 88 -93 c48
-51 131 -139 184 -196z m4123 213 l0 -65 -177 1 -178 1 105 35 c68 23 106 31
108 24 2 -6 19 -11 38 -11 30 0 34 3 34 25 0 20 8 29 33 40 17 8 33 14 35 15
1 0 2 -29 2 -65z m-3561 5 c29 -34 38 -52 29 -55 -7 -2 -103 -36 -213 -74
-110 -38 -215 -75 -232 -82 -31 -13 -34 -12 -68 21 -19 19 -32 37 -28 41 5 4
89 41 188 82 99 42 200 85 225 96 25 11 48 21 51 21 3 0 25 -23 48 -50z m1252
40 c11 -6 19 -21 19 -36 0 -24 1 -25 73 -23 55 1 89 -5 142 -24 l70 -26 -171
0 c-94 -1 -173 1 -175 3 -8 9 3 116 13 116 5 0 18 -5 29 -10z m4888 -259 c44
-96 79 -176 77 -178 -2 -2 -19 5 -37 15 -19 10 -109 58 -201 106 -93 48 -168
91 -168 95 0 4 18 24 40 46 l40 39 54 -60 c53 -59 54 -59 75 -40 11 11 21 24
21 29 0 6 -23 35 -52 65 l-52 55 45 38 44 38 16 -37 c10 -20 53 -115 98 -211z
m-6964 57 c15 -18 56 -63 92 -100 l64 -67 -23 -14 c-13 -8 -63 -38 -113 -67
-113 -67 -260 -172 -373 -267 -48 -40 -90 -73 -94 -73 -4 0 -16 14 -28 30
l-21 30 100 108 c117 125 231 265 304 375 28 42 55 77 58 77 4 0 19 -15 34
-32z m2583 -65 l3 -83 -246 0 -245 0 0 78 c0 43 3 82 7 86 4 3 113 5 242 4
l236 -3 3 -82z m1732 2 l0 -85 -245 0 -245 0 0 78 c0 43 3 82 7 85 3 4 114 7
245 7 l238 0 0 -85z m-1320 -15 l0 -70 -35 0 -35 0 0 70 0 70 35 0 35 0 0 -70z
m490 0 l0 -70 -35 0 -35 0 0 70 0 70 35 0 35 0 0 -70z m2316 -172 c120 -127
219 -234 219 -237 0 -3 -53 -58 -118 -121 l-119 -115 -119 125 c-66 69 -167
176 -226 238 l-107 113 120 114 c65 63 122 114 125 115 3 0 104 -104 225 -232z
m-2948 185 l-3 -38 -95 0 c-92 0 -95 1 -98 23 -7 48 1 52 103 52 l96 0 -3 -37z
m487 -3 l0 -35 -132 -3 -133 -3 0 41 0 41 133 -3 132 -3 0 -35z m413 3 l-3
-38 -92 -3 -93 -3 0 41 0 40 96 0 95 0 -3 -37z m-898 -148 l0 -35 -100 0 -100
0 0 35 0 35 100 0 100 0 0 -35z m490 0 l0 -35 -135 0 -135 0 0 35 0 35 135 0
135 0 0 -35z m410 0 l0 -35 -95 0 -95 0 0 35 0 35 95 0 95 0 0 -35z m-1170
-100 l0 -85 -207 2 -208 3 -3 83 -3 82 211 0 210 0 0 -85z m410 0 l0 -85 -35
0 -35 0 0 85 0 85 35 0 35 0 0 -85z m490 0 l0 -85 -35 0 -35 0 0 85 0 85 35 0
35 0 0 -85z m760 0 l0 -85 -207 2 -208 3 -3 83 -3 82 211 0 210 0 0 -85z
m-1392 -49 l3 -37 -98 3 c-94 3 -98 4 -101 26 -6 44 0 47 99 45 l94 -1 3 -36z
m487 2 l0 -33 -132 -3 -133 -3 0 34 c0 19 2 36 4 38 2 2 62 3 133 2 l128 -2 0
-33z m413 -2 l3 -36 -95 0 -96 0 0 38 0 37 92 -2 93 -2 3 -35z m-1438 -247 c0
-159 11 -198 64 -230 66 -40 163 -12 192 56 10 24 14 75 14 175 l0 140 35 0
35 0 0 -135 c0 -156 13 -203 65 -235 64 -39 156 -16 190 49 11 23 15 64 15
176 l0 145 34 0 34 0 4 -117 c4 -94 9 -126 25 -158 69 -131 234 -155 335 -48
46 48 58 92 58 213 l0 110 35 0 35 0 0 -137 c0 -116 3 -143 20 -178 35 -72
119 -97 187 -55 55 33 63 62 63 225 l0 145 35 0 35 0 0 -127 c0 -71 5 -144 10
-164 30 -107 177 -133 237 -42 15 22 19 57 23 177 l5 151 35 0 35 0 0 -230 0
-230 -960 0 -960 0 -3 233 -2 232 35 0 35 0 0 -141z m198 5 c2 -120 1 -133
-18 -157 -26 -32 -60 -35 -86 -6 -16 18 -20 40 -22 146 -2 68 -1 131 2 139 4
11 20 14 63 12 l58 -3 3 -131z m342 -4 c0 -127 -2 -142 -20 -160 -24 -24 -48
-25 -78 -4 -21 14 -22 22 -22 160 l0 144 60 0 60 0 0 -140z m485 25 c0 -89 -3
-116 -18 -138 -39 -59 -110 -81 -172 -51 -62 29 -75 61 -75 192 l0 113 133 -3
132 -3 0 -110z m345 -19 c0 -120 -2 -136 -21 -160 -23 -30 -45 -33 -77 -10
-21 14 -22 22 -22 160 l0 144 60 0 60 0 0 -134z m340 -6 c0 -127 -2 -142 -20
-160 -24 -24 -48 -25 -78 -4 -21 14 -22 22 -22 160 l0 144 60 0 60 0 0 -140z
m2120 -115 c40 -88 84 -184 97 -213 l23 -54 -72 40 c-40 22 -131 70 -203 107
-71 37 -134 71 -139 76 -5 4 8 24 29 44 l39 36 57 -57 c57 -57 59 -57 79 -39
11 10 20 23 20 29 0 6 -23 34 -52 63 l-52 53 44 45 c24 25 47 42 50 37 4 -4
40 -79 80 -167z m-6670 103 l23 -31 -29 -24 c-66 -54 -126 -3 -68 58 35 37 45
36 74 -3z m4837 -401 c7 -4 -10 -28 -52 -68 -34 -33 -77 -87 -94 -120 l-32
-59 -927 0 -927 0 -30 57 c-16 32 -58 87 -92 122 -35 35 -63 65 -63 67 0 1 10
5 23 7 39 8 2181 2 2194 -6z m-1437 -363 l0 -34 -70 0 -70 0 0 35 0 34 63 3
c34 2 65 2 70 0 4 -2 7 -19 7 -38z m220 0 l0 -34 -68 0 c-38 0 -71 2 -74 5 -2
3 -3 18 0 34 4 29 6 30 66 33 33 2 64 2 69 0 4 -2 7 -19 7 -38z m148 3 c3 -36
2 -37 -31 -37 -42 0 -44 2 -39 42 3 30 7 33 35 32 29 -1 32 -4 35 -37z m222
-3 l0 -34 -75 0 -75 0 0 35 0 34 68 3 c37 2 70 2 75 0 4 -2 7 -19 7 -38z m218
2 l3 -36 -75 0 -76 0 0 33 c0 19 2 36 4 38 2 2 35 3 73 3 l68 -2 3 -36z m220
0 l3 -36 -75 0 -76 0 0 33 c0 19 2 36 4 38 2 2 35 3 73 3 l68 -2 3 -36z m220
-2 c-3 -29 -4 -29 -75 -32 l-73 -3 0 35 0 35 68 3 c37 2 71 0 75 -3 5 -4 7
-19 5 -35z m-1688 1 l0 -35 -70 0 -70 0 0 35 0 35 70 0 70 0 0 -35z m220 0 l0
-35 -70 0 -70 0 0 35 0 35 70 0 70 0 0 -35z m1570 -115 c24 -7 24 -8 5 -15
-164 -65 -197 -83 -284 -155 -33 -27 -80 -76 -105 -109 -46 -59 -116 -185
-116 -208 0 -10 -109 -13 -513 -13 l-514 0 -48 98 c-41 82 -62 111 -139 187
-92 92 -188 153 -291 185 -57 18 -63 23 -35 31 34 10 2009 9 2040 -1z"/>
<path d="M6250 10806 c0 -32 2 -34 46 -40 25 -3 73 -20 106 -38 l60 -32 19 25
c10 13 19 26 19 29 0 3 -24 20 -52 37 -58 35 -115 53 -165 53 -31 0 -33 -2
-33 -34z"/>
<path d="M5940 10585 c0 -33 2 -35 35 -35 33 0 35 2 35 35 0 33 -2 35 -35 35
-33 0 -35 -2 -35 -35z"/>
<path d="M6120 10585 c0 -33 2 -35 35 -35 33 0 35 2 35 35 0 33 -2 35 -35 35
-33 0 -35 -2 -35 -35z"/>
<path d="M6310 10585 c0 -33 2 -35 35 -35 33 0 35 2 35 35 0 33 -2 35 -35 35
-33 0 -35 -2 -35 -35z"/>
<path d="M6490 10585 c0 -34 1 -35 40 -35 39 0 40 1 40 35 0 34 -1 35 -40 35
-39 0 -40 -1 -40 -35z"/>
<path d="M5737 10353 c-4 -3 -7 -35 -7 -70 l0 -63 35 0 c32 0 35 2 35 30 0 27
3 30 30 30 28 0 30 2 30 40 l0 40 -58 0 c-32 0 -62 -3 -65 -7z"/>
<path d="M6647 10354 c-4 -4 -7 -22 -7 -41 0 -30 3 -33 29 -33 25 0 30 -4 33
-27 3 -24 8 -28 41 -31 l38 -3 -3 68 -3 68 -60 3 c-34 2 -64 0 -68 -4z"/>
<path d="M5880 9915 c0 -33 2 -35 35 -35 33 0 35 2 35 35 0 33 -2 35 -35 35
-33 0 -35 -2 -35 -35z"/>
<path d="M6040 9915 c0 -34 1 -35 40 -35 39 0 40 1 40 35 0 34 -1 35 -40 35
-39 0 -40 -1 -40 -35z"/>
<path d="M6210 9916 c0 -35 1 -36 41 -36 39 0 40 1 37 33 -3 29 -6 32 -40 35
-37 3 -38 3 -38 -32z"/>
<path d="M6380 9915 c0 -33 2 -35 35 -35 33 0 35 2 35 35 0 33 -2 35 -35 35
-33 0 -35 -2 -35 -35z"/>
<path d="M6550 9915 c0 -33 2 -35 35 -35 33 0 35 2 35 35 0 33 -2 35 -35 35
-33 0 -35 -2 -35 -35z"/>
<path d="M9055 9740 c-17 -19 -17 -21 0 -40 23 -26 40 -25 60 2 14 21 14 24
-7 40 -29 22 -31 22 -53 -2z"/>
<path d="M9156 9656 c-15 -24 -15 -25 35 -65 l51 -41 19 24 c11 13 19 26 19
28 0 5 -96 78 -102 78 -3 0 -13 -11 -22 -24z"/>
<path d="M5198 9421 c-33 -29 -33 -30 -36 -135 l-4 -106 112 0 112 0 -4 106
c-3 105 -3 106 -36 135 -24 22 -42 29 -72 29 -30 0 -48 -7 -72 -29z m96 -57
c10 -9 16 -33 16 -60 l0 -44 -40 0 -40 0 0 44 c0 42 18 76 40 76 5 0 16 -7 24
-16z"/>
<path d="M5493 9430 c-41 -25 -55 -72 -51 -170 l3 -75 108 -3 107 -3 0 102 0
101 -34 34 c-40 40 -83 45 -133 14z m85 -62 c7 -7 12 -34 12 -60 l0 -48 -35 0
-35 0 0 48 c0 47 12 72 35 72 6 0 16 -5 23 -12z"/>
<path d="M6044 9416 l-34 -34 0 -101 0 -101 110 0 110 0 0 93 c0 74 -4 98 -20
125 -38 62 -114 70 -166 18z m100 -52 c10 -9 16 -33 16 -60 l0 -44 -40 0 -40
0 0 44 c0 42 18 76 40 76 5 0 16 -7 24 -16z"/>
<path d="M6344 9431 c-41 -25 -54 -66 -54 -167 l0 -84 110 0 110 0 0 101 0
101 -34 34 c-40 40 -83 45 -132 15z m84 -63 c7 -7 12 -34 12 -60 l0 -48 -35 0
-35 0 0 54 c0 52 6 63 36 65 5 1 15 -4 22 -11z"/>
<path d="M6894 9416 l-34 -34 0 -101 0 -101 110 0 110 0 0 90 c0 103 -14 141
-60 165 -49 25 -88 19 -126 -19z m90 -42 c12 -5 16 -20 16 -60 l0 -54 -35 0
-35 0 0 48 c0 61 16 80 54 66z"/>
<path d="M7203 9440 c-45 -18 -63 -66 -63 -167 l0 -93 110 0 110 0 0 101 0
101 -34 34 c-36 36 -75 43 -123 24z m71 -76 c10 -9 16 -33 16 -60 l0 -44 -40
0 -40 0 0 44 c0 42 18 76 40 76 5 0 16 -7 24 -16z"/>
<path d="M8340 8659 c-38 -41 -70 -76 -70 -80 0 -3 9 -14 20 -24 20 -18 22
-18 95 55 68 68 74 76 61 94 -7 11 -18 22 -24 24 -7 2 -43 -29 -82 -69z"/>
<path d="M8202 8504 l-21 -27 25 -20 c14 -10 26 -18 27 -16 1 2 10 13 20 25
16 20 16 21 -6 42 l-23 22 -22 -26z"/>
<path d="M8116 8395 c-15 -23 -15 -25 9 -41 24 -16 26 -15 45 7 19 24 19 24
-1 42 -28 22 -34 22 -53 -8z"/>
<path d="M10403 7978 c-26 -13 -27 -16 -13 -53 9 -23 14 -26 38 -20 40 10 46
20 32 54 -13 33 -22 36 -57 19z"/>
<path d="M10030 7920 c-36 -16 -65 -32 -64 -37 1 -26 18 -63 28 -63 6 0 46 14
88 31 l76 31 -13 31 c-17 41 -35 42 -115 7z"/>
<path d="M10110 7759 c-36 -15 -69 -30 -75 -32 -6 -2 -3 -18 7 -40 l17 -35 73
30 c40 17 77 34 82 39 11 10 -12 69 -28 68 -6 -1 -40 -14 -76 -30z"/>
<path d="M9595 7831 c-143 -61 -132 -51 -115 -97 13 -33 36 -30 138 18 l71 33
-14 33 c-16 36 -23 37 -80 13z"/>
<path d="M9320 7716 c-30 -13 -72 -31 -93 -39 l-37 -16 17 -36 c18 -39 22 -39
98 -4 22 10 57 25 78 33 l37 15 -17 36 c-9 19 -19 35 -22 35 -3 -1 -31 -11
-61 -24z"/>
<path d="M9625 7653 c-44 -19 -83 -37 -87 -41 -3 -4 1 -21 10 -39 l17 -31 85
35 c47 19 89 39 94 43 11 11 -12 70 -28 69 -6 -1 -47 -17 -91 -36z"/>
<path d="M9018 7591 c-48 -21 -90 -40 -94 -43 -7 -8 24 -68 35 -68 7 0 180 69
189 75 5 4 -29 75 -36 74 -4 0 -46 -17 -94 -38z"/>
<path d="M9390 7556 c-30 -13 -72 -31 -92 -39 -36 -15 -37 -17 -27 -46 6 -17
15 -33 20 -36 6 -5 169 57 187 71 6 4 -19 74 -26 74 -4 -1 -32 -11 -62 -24z"/>
<path d="M9730 7512 c-19 -10 -56 -26 -82 -36 -27 -10 -48 -20 -48 -22 0 -3 6
-20 14 -39 l15 -35 88 37 c48 20 92 40 97 44 13 12 -14 69 -33 69 -9 -1 -32
-9 -51 -18z"/>
<path d="M9086 7429 c-49 -21 -91 -40 -93 -42 -7 -8 20 -67 30 -67 26 0 187
74 187 86 0 17 -22 64 -29 63 -3 0 -46 -18 -95 -40z"/>
<path d="M9453 7395 c-29 -13 -63 -27 -77 -31 -39 -9 -47 -26 -34 -62 7 -18
16 -32 21 -32 4 0 33 11 62 25 30 13 66 27 79 31 39 9 46 25 31 62 -8 17 -18
32 -22 32 -4 -1 -31 -12 -60 -25z"/>
<path d="M9158 7272 c-48 -21 -90 -40 -94 -44 -9 -10 16 -68 30 -68 11 0 177
67 184 75 5 5 -21 75 -28 74 -3 0 -44 -17 -92 -37z"/>
<path d="M1876 7199 c-10 -51 -8 -56 30 -64 43 -8 43 -7 54 39 9 41 9 41 -41
50 -35 6 -37 5 -43 -25z"/>
<path d="M1754 6565 c-8 -42 -6 -44 40 -55 38 -8 36 -10 50 51 5 22 2 28 -17
33 -51 14 -66 8 -73 -29z"/>
<path d="M1506 7075 c-19 -51 -2 -75 54 -75 24 0 28 5 33 37 4 20 5 38 4 40
-2 1 -21 5 -43 9 -33 5 -42 3 -48 -11z"/>
<path d="M1467 6863 c-2 -4 -7 -24 -11 -45 -7 -36 -6 -36 34 -43 23 -4 44 -5
47 -2 2 3 7 24 10 46 5 39 4 41 -20 41 -14 0 -32 3 -40 6 -8 3 -17 2 -20 -3z"/>
<path d="M1176 7129 c-10 -51 -8 -56 30 -64 42 -7 54 3 54 48 0 28 -3 31 -51
41 -23 5 -27 2 -33 -25z"/>
<path d="M1134 6917 c-2 -7 -6 -26 -7 -42 -2 -25 2 -30 33 -36 41 -9 46 -5 55
42 6 35 5 36 -25 43 -45 8 -50 8 -56 -7z"/>
<path d="M2823 6979 c-38 -11 -39 -16 -17 -62 l16 -34 37 14 c34 13 36 16 33
54 -4 42 -11 45 -69 28z"/>
<path d="M2982 6946 c-8 -40 -7 -41 22 -53 46 -17 50 -16 66 20 7 17 15 35 17
38 4 8 -19 18 -64 29 -32 8 -32 7 -41 -34z"/>
<path d="M2666 6869 c-33 -39 -33 -45 6 -69 34 -20 49 -16 69 22 7 13 4 25
-13 48 -12 16 -25 30 -29 30 -4 0 -19 -14 -33 -31z"/>
<path d="M3142 6861 l-34 -29 23 -31 c12 -17 27 -31 31 -31 14 0 68 30 68 37
0 6 -51 84 -54 83 0 -1 -16 -14 -34 -29z"/>
<path d="M2776 6708 c-15 -58 -10 -63 62 -76 38 -6 75 -14 84 -17 11 -4 17 6
25 39 l10 44 -81 16 c-100 20 -93 20 -100 -6z"/>
<path d="M2597 6713 c-4 -3 -7 -26 -7 -50 0 -41 1 -43 29 -43 50 0 61 9 61 50
0 34 -3 38 -31 44 -39 8 -44 8 -52 -1z"/>
<path d="M3198 6693 c-19 -5 -35 -60 -22 -73 5 -5 25 -11 45 -15 35 -6 36 -5
43 25 12 60 8 70 -21 69 -16 -1 -36 -3 -45 -6z"/>
<path d="M2663 6535 c-18 -8 -33 -18 -33 -22 0 -5 12 -26 26 -47 l26 -38 30
30 30 30 -18 31 c-21 35 -18 35 -61 16z"/>
<path d="M3131 6513 c-27 -33 -26 -45 4 -73 27 -26 38 -21 67 27 16 28 16 28
-17 50 l-34 22 -20 -26z"/>
<path d="M2798 6423 c-26 -30 -31 -60 -11 -68 74 -30 76 -29 87 31 4 24 1 33
-12 37 -9 3 -24 8 -33 11 -9 4 -22 -1 -31 -11z"/>
<path d="M2988 6418 c-29 -10 -33 -28 -20 -75 7 -21 8 -21 52 -6 25 8 46 16
48 18 7 6 -33 75 -42 74 -6 0 -23 -5 -38 -11z"/>
<path d="M2017 6863 c-20 -71 -20 -71 24 -78 22 -4 42 -5 44 -3 2 2 7 23 11
46 6 40 5 42 -19 42 -14 0 -32 3 -40 6 -9 3 -17 -2 -20 -13z"/>
<path d="M2189 6845 c0 0 -2 -9 -4 -19 -2 -11 -6 -30 -9 -42 -5 -17 -1 -23 17
-28 51 -13 66 -8 73 28 8 44 2 53 -41 58 -19 2 -35 4 -36 3z"/>
<path d="M10928 6727 c-32 -13 -33 -18 -13 -57 14 -27 17 -29 43 -18 42 18 45
24 28 57 -18 34 -18 34 -58 18z"/>
<path d="M10560 6670 c-69 -30 -79 -44 -58 -84 l13 -25 80 36 c44 19 81 36 82
37 2 1 -3 17 -9 34 -15 39 -24 39 -108 2z"/>
<path d="M10675 6526 c-16 -8 -52 -23 -78 -35 l-48 -21 17 -32 c9 -18 18 -34
19 -36 3 -3 148 58 156 67 8 7 -18 71 -29 71 -4 -1 -20 -7 -37 -14z"/>
<path d="M10150 6587 c-14 -7 -48 -21 -76 -31 -28 -10 -58 -24 -68 -31 -16
-12 -16 -15 -1 -45 9 -17 22 -30 28 -27 31 12 172 71 175 73 5 4 -21 74 -28
74 -3 0 -16 -6 -30 -13z"/>
<path d="M9895 6482 c-6 -5 -46 -23 -90 -41 -44 -18 -81 -34 -83 -35 -7 -7 22
-66 32 -66 11 0 176 67 184 75 4 3 -25 75 -30 75 -2 0 -8 -4 -13 -8z"/>
<path d="M10155 6403 c-44 -19 -83 -38 -88 -42 -7 -7 10 -71 19 -71 8 0 180
72 187 79 8 8 -20 72 -31 70 -4 -1 -43 -17 -87 -36z"/>
<path d="M9540 6333 c-47 -20 -87 -37 -88 -39 -4 -3 18 -74 22 -74 8 0 187 77
192 83 10 9 -16 67 -30 66 -6 0 -49 -17 -96 -36z"/>
<path d="M9885 6290 c-84 -36 -90 -40 -88 -66 4 -49 16 -50 113 -9 91 38 92
39 86 69 -4 17 -10 33 -14 37 -4 4 -47 -10 -97 -31z"/>
<path d="M10223 6242 c-45 -21 -85 -40 -89 -44 -6 -7 14 -68 22 -68 9 0 180
73 185 78 8 8 -18 72 -29 71 -4 0 -44 -17 -89 -37z"/>
<path d="M9660 6197 c-14 -6 -53 -23 -87 -39 l-63 -28 17 -34 c14 -31 18 -33
41 -25 29 11 166 70 169 73 2 1 -3 17 -9 34 -13 34 -27 38 -68 19z"/>
<path d="M10010 6153 c-8 -3 -38 -17 -67 -29 -28 -13 -56 -24 -60 -24 -24 0
-32 -23 -17 -51 8 -16 19 -29 25 -29 19 0 179 72 179 81 0 4 -5 20 -12 34 -11
25 -20 28 -48 18z"/>
<path d="M9750 6043 c-8 -3 -33 -14 -55 -23 -22 -10 -57 -25 -78 -34 l-37 -15
13 -33 c17 -38 15 -38 129 8 l86 36 -13 31 c-14 34 -21 38 -45 30z"/>
<path d="M9405 5900 c-49 -21 -90 -42 -89 -47 1 -24 26 -64 37 -60 118 46 177
74 177 84 0 17 -22 63 -29 62 -3 -1 -46 -18 -96 -39z"/>
<path d="M7868 6463 c7 -3 16 -2 19 1 4 3 -2 6 -13 5 -11 0 -14 -3 -6 -6z"/>
<path d="M7850 6348 c-39 -65 -70 -209 -70 -329 0 -43 4 -80 8 -83 5 -3 28 28
52 70 99 174 127 306 74 358 -24 24 -42 19 -64 -16z"/>
<path d="M5692 6154 c-45 -117 -45 -118 6 -122 l42 -3 0 88 c0 124 -11 132
-48 37z"/>
<path d="M5658 5963 c7 -3 16 -2 19 1 4 3 -2 6 -13 5 -11 0 -14 -3 -6 -6z"/>
<path d="M5492 5860 c0 -19 2 -27 5 -17 2 9 2 25 0 35 -3 9 -5 1 -5 -18z"/>
<path d="M4861 6441 c-8 -5 5 -7 35 -4 27 3 51 7 53 9 9 8 -75 3 -88 -5z"/>
<path d="M4653 5805 c0 -44 2 -61 4 -37 2 23 2 59 0 80 -2 20 -4 1 -4 -43z"/>
<path d="M6071 6424 c0 -11 3 -14 6 -6 3 7 2 16 -1 19 -3 4 -6 -2 -5 -13z"/>
<path d="M6738 6143 c6 -2 18 -2 25 0 6 3 1 5 -13 5 -14 0 -19 -2 -12 -5z"/>
<path d="M6618 5733 c7 -3 16 -2 19 1 4 3 -2 6 -13 5 -11 0 -14 -3 -6 -6z"/>
<path d="M5208 6403 c6 -2 18 -2 25 0 6 3 1 5 -13 5 -14 0 -19 -2 -12 -5z"/>
<path d="M5163 6310 c-12 -5 -26 -17 -32 -27 -11 -21 -35 -183 -28 -190 8 -7
174 163 182 187 5 15 2 25 -6 31 -18 11 -87 10 -116 -1z"/>
<path d="M1921 5052 c-11 -16 -21 -33 -23 -39 -3 -10 199 -149 361 -248 58
-36 71 -40 132 -40 37 0 71 3 75 7 4 5 1 26 -6 48 -13 38 -15 40 -45 34 -45
-8 -77 8 -275 137 -96 63 -180 118 -187 122 -7 4 -20 -4 -32 -21z"/>
<path d="M9200 4995 c-7 -20 -10 -38 -8 -39 10 -9 224 -68 250 -70 26 -1 32 3
39 28 5 17 7 32 5 34 -3 2 -55 18 -118 36 -62 18 -123 36 -135 40 -18 6 -23 1
-33 -29z"/>
<path d="M10172 4843 c-27 -5 -112 -87 -112 -108 0 -15 37 -35 64 -35 8 0 16
9 19 20 6 25 89 64 117 55 16 -5 23 0 34 27 8 18 12 36 10 40 -5 8 -92 9 -132
1z"/>
<path d="M10341 4591 c-17 -30 -62 -54 -102 -53 -33 2 -38 -2 -48 -30 -15 -41
-4 -51 54 -50 73 2 138 40 170 101 14 29 14 29 -17 40 -41 15 -46 14 -57 -8z"/>
<path d="M3516 4097 c-9 -22 -15 -41 -13 -42 1 -1 17 -7 35 -13 32 -11 34 -10
48 23 19 47 19 50 -20 62 -34 10 -34 10 -50 -30z"/>
<path d="M4272 3329 c-28 -8 -32 -13 -27 -32 4 -12 9 -29 11 -38 4 -14 10 -15
44 -5 41 10 46 19 34 64 -7 24 -12 25 -62 11z"/>
<path d="M8737 4272 l-27 -28 25 -24 26 -24 27 27 27 27 -26 25 -25 25 -27
-28z"/>
<path d="M8870 4125 l-23 -25 23 -25 24 -25 23 22 c28 26 29 40 5 61 -24 22
-24 22 -52 -8z"/>
<path d="M8680 4105 l-34 -35 25 -25 25 -25 34 35 34 35 -25 25 -25 25 -34
-35z"/>
<path d="M8986 3941 l-69 -70 68 -77 c100 -111 154 -127 216 -64 31 31 38 74
18 113 -12 23 -149 167 -159 167 -3 0 -37 -31 -74 -69z m126 -78 c50 -49 58
-72 34 -92 -19 -16 -39 -5 -96 54 l-45 46 25 19 c14 11 27 20 30 20 2 0 26
-21 52 -47z"/>
<path d="M8955 3580 c-58 -58 -58 -60 -40 -80 10 -11 23 -20 29 -20 7 0 38 27
71 60 58 58 58 60 40 80 -10 11 -23 20 -29 20 -7 0 -38 -27 -71 -60z"/>
<path d="M8075 3590 c-17 -18 -17 -21 -1 -45 20 -31 27 -31 54 -2 l22 23 -23
22 c-28 27 -30 27 -52 2z"/>
<path d="M8053 3398 l-52 -53 21 -28 21 -29 53 53 c30 29 54 58 54 65 0 10
-31 44 -41 44 -3 0 -28 -24 -56 -52z"/>
<path d="M8257 3422 l-27 -28 25 -24 26 -24 27 27 27 27 -26 25 -25 25 -27
-28z"/>
<path d="M8201 3200 l-74 -68 72 -79 c40 -43 86 -84 101 -92 80 -39 177 51
139 129 -12 24 -152 181 -161 180 -2 -1 -36 -32 -77 -70z m133 -86 c39 -45 47
-60 39 -73 -21 -33 -48 -24 -98 35 l-48 56 24 19 c13 10 26 19 29 19 3 0 27
-25 54 -56z"/>
<path d="M8542 3191 l-63 -57 22 -27 21 -27 69 61 70 62 -22 23 c-13 13 -25
24 -28 24 -3 -1 -34 -27 -69 -59z"/>
<path d="M9366 3604 l-29 -26 24 -24 24 -24 29 23 c28 23 29 24 11 50 -21 33
-23 33 -59 1z"/>
<path d="M9446 3451 l-69 -69 69 -76 c77 -84 120 -111 164 -101 43 10 80 58
80 106 0 35 -8 48 -77 122 -42 45 -81 83 -87 85 -6 1 -42 -29 -80 -67z m174
-143 c0 -9 -6 -21 -14 -27 -20 -17 -46 -2 -92 54 l-37 46 22 23 22 24 50 -53
c27 -28 49 -59 49 -67z"/>
<path d="M3007 2892 c-33 -34 -33 -43 -4 -70 l23 -22 37 38 37 38 -23 22 c-30
28 -38 28 -70 -6z"/>
<path d="M5230 2940 l0 -41 88 3 87 3 3 38 3 37 -90 0 -91 0 0 -40z"/>
<path d="M5482 2943 c3 -35 6 -38 36 -41 31 -3 32 -2 32 37 0 40 -1 41 -36 41
-35 0 -35 -1 -32 -37z"/>
<path d="M6972 2943 l3 -38 85 0 85 0 3 38 3 37 -91 0 -91 0 3 -37z"/>
<path d="M7224 2966 c-3 -8 -4 -25 -2 -38 2 -19 9 -23 38 -23 33 0 35 2 35 35
0 32 -3 35 -33 38 -21 2 -34 -2 -38 -12z"/>
<path d="M8527 2802 l-27 -28 25 -24 26 -24 27 27 27 27 -26 25 -25 25 -27
-28z"/>
<path d="M8662 2708 l-73 -71 73 -74 c86 -88 118 -107 163 -99 58 11 98 80 78
133 -9 23 -150 183 -161 183 -4 0 -40 -33 -80 -72z m132 -80 c48 -55 53 -73
24 -92 -15 -9 -27 -2 -73 44 l-55 54 22 23 c12 13 25 23 29 23 4 0 28 -24 53
-52z"/>
<path d="M5310 2695 l0 -35 50 0 50 0 0 35 0 35 -50 0 -50 0 0 -35z"/>
<path d="M5480 2695 c0 -33 2 -35 35 -35 33 0 35 2 35 35 0 33 -2 35 -35 35
-33 0 -35 -2 -35 -35z"/>
<path d="M6970 2695 l0 -35 50 0 50 0 0 35 0 35 -50 0 -50 0 0 -35z"/>
<path d="M7140 2695 c0 -33 2 -35 35 -35 33 0 35 2 35 35 0 33 -2 35 -35 35
-33 0 -35 -2 -35 -35z"/>
<path d="M5440 1870 l0 -70 40 0 40 0 0 70 0 70 -40 0 -40 0 0 -70z"/>
<path d="M5640 1870 l0 -70 35 0 35 0 0 70 0 70 -35 0 -35 0 0 -70z"/>
<path d="M5830 1870 l0 -70 40 0 40 0 0 70 0 70 -40 0 -40 0 0 -70z"/>
<path d="M6030 1870 l0 -70 35 0 35 0 0 70 0 70 -35 0 -35 0 0 -70z"/>
<path d="M6230 1870 l0 -70 35 0 35 0 0 70 0 70 -35 0 -35 0 0 -70z"/>
<path d="M6420 1870 l0 -70 35 0 35 0 0 70 0 70 -35 0 -35 0 0 -70z"/>
<path d="M6620 1870 l0 -70 35 0 35 0 0 70 0 70 -35 0 -35 0 0 -70z"/>
<path d="M6810 1870 l0 -70 35 0 35 0 0 70 0 70 -35 0 -35 0 0 -70z"/>
<path d="M7010 1870 l0 -70 35 0 35 0 0 70 0 70 -35 0 -35 0 0 -70z"/>
<path d="M5640 1375 l0 -55 35 0 35 0 0 55 0 55 -35 0 -35 0 0 -55z"/>
<path d="M5832 1398 c3 -30 6 -33 41 -36 36 -3 37 -3 37 32 0 35 -1 36 -41 36
-39 0 -40 -1 -37 -32z"/>
<path d="M6030 1335 l0 -95 35 0 35 0 0 95 0 95 -35 0 -35 0 0 -95z"/>
<path d="M6228 1400 c-6 -37 -3 -40 39 -40 31 0 33 2 33 35 0 33 -2 35 -34 35
-30 0 -34 -3 -38 -30z"/>
<path d="M6420 1335 l0 -95 35 0 35 0 0 95 0 95 -35 0 -35 0 0 -95z"/>
<path d="M6620 1395 c0 -33 2 -35 35 -35 33 0 35 2 35 35 0 33 -2 35 -35 35
-33 0 -35 -2 -35 -35z"/>
<path d="M6810 1377 c0 -30 2 -56 5 -59 3 -2 18 -3 35 0 29 4 30 6 30 58 l0
54 -35 0 -35 0 0 -53z"/>
<path d="M5834 1277 c-2 -7 -4 -52 -2 -98 l3 -84 38 -3 38 -3 -3 98 -3 98 -33
3 c-21 2 -34 -2 -38 -11z"/>
<path d="M6230 1286 c-3 -2 -4 -47 -2 -100 l3 -96 35 0 35 0 -3 98 -3 97 -30
3 c-17 2 -33 1 -35 -2z"/>
<path d="M6620 1191 l0 -101 35 0 36 0 -3 98 -3 97 -32 3 -33 3 0 -100z"/>
<path d="M6030 1125 c0 -33 2 -35 35 -35 33 0 35 2 35 35 0 33 -2 35 -35 35
-33 0 -35 -2 -35 -35z"/>
<path d="M6420 1125 c0 -33 2 -35 35 -35 33 0 35 2 35 35 0 33 -2 35 -35 35
-33 0 -35 -2 -35 -35z"/>
<path d="M3272 10658 c3 -40 5 -43 33 -44 53 -2 62 4 60 44 -1 37 -1 37 -48
40 l-48 3 3 -43z"/>
<path d="M3462 10658 c3 -43 3 -43 46 -46 38 -3 42 -1 42 20 0 13 3 33 6 46 6
21 3 22 -45 22 l-52 0 3 -42z"/>
<path d="M3646 10650 c-7 -47 -2 -60 24 -60 16 0 175 -37 237 -56 18 -5 24 0
38 32 14 35 14 40 1 50 -17 12 -187 59 -252 69 l-41 6 -7 -41z"/>
<path d="M8535 10604 c-90 -49 -140 -140 -133 -239 9 -102 58 -174 148 -214
114 -52 263 1 323 112 17 33 22 59 22 118 -1 67 -4 82 -30 125 -17 27 -50 62
-74 79 -39 27 -51 30 -134 33 -70 2 -99 -2 -122 -14z m208 -67 c118 -66 117
-245 0 -314 -87 -50 -189 -28 -245 53 -39 55 -39 144 -2 200 33 48 48 60 99
77 50 17 98 12 148 -16z"/>
<path d="M8709 10449 c-22 -41 -18 -101 10 -123 23 -19 24 -19 38 0 20 26 11
100 -15 126 l-20 20 -13 -23z"/>
<path d="M8540 10431 c-15 -28 -12 -77 5 -111 18 -35 22 -36 46 -14 31 28 4
144 -32 144 -5 0 -13 -9 -19 -19z"/>
<path d="M3440 10475 c0 -36 4 -45 18 -46 9 -1 29 -3 44 -4 24 -3 26 -1 30 41
2 25 1 47 -1 50 -2 2 -24 4 -48 4 l-43 0 0 -45z"/>
<path d="M3626 10460 c-4 -24 -5 -45 -2 -47 2 -3 22 -7 44 -10 35 -5 40 -3 45
18 11 40 8 69 -7 69 -7 0 -27 3 -43 6 -29 6 -30 4 -37 -36z"/>
<path d="M3811 10419 c-7 -23 -9 -45 -4 -49 4 -4 39 -17 77 -30 38 -12 93 -35
122 -50 l54 -27 20 34 c11 19 20 39 20 44 0 14 -239 119 -271 119 -3 0 -11
-19 -18 -41z"/>
<path d="M7783 9679 c-44 -13 -90 -62 -103 -110 -11 -40 -9 -57 12 -112 15
-39 458 -397 503 -407 42 -9 104 16 128 53 20 31 22 92 3 126 -10 18 -11 34
-3 63 12 48 -11 117 -52 150 -16 13 -33 42 -40 68 -19 66 -92 134 -157 146
-27 5 -67 7 -88 3 -28 -5 -51 -1 -80 12 -45 20 -74 22 -123 8z m122 -85 c27
-25 28 -25 68 -9 99 40 207 -39 207 -151 0 -11 12 -24 28 -32 50 -22 68 -95
36 -141 -16 -22 -16 -25 3 -40 31 -24 37 -55 16 -79 -41 -47 -47 -43 -279 144
-121 97 -224 186 -231 198 -21 37 -15 75 16 107 39 39 96 40 136 3z"/>
<path d="M7827 9527 c-14 -22 -13 -25 45 -71 l61 -49 18 24 c10 13 18 26 18
29 0 8 -107 90 -117 90 -5 0 -17 -10 -25 -23z"/>
<path d="M8005 9390 c-18 -20 -18 -21 3 -42 21 -21 22 -21 42 -3 25 22 25 34
3 51 -24 18 -27 17 -48 -6z"/>
<path d="M8105 9310 c-18 -20 -18 -21 3 -43 l22 -21 22 21 c21 22 21 23 3 43
-10 11 -21 20 -25 20 -4 0 -15 -9 -25 -20z"/>
<path d="M9785 9591 c-11 -4 -39 -6 -62 -3 -52 6 -87 -14 -110 -63 -14 -29
-14 -41 -5 -74 11 -33 32 -55 145 -145 141 -114 171 -127 238 -107 56 17 89
64 89 128 0 42 -5 56 -33 89 -19 21 -37 51 -40 66 -9 34 -51 85 -88 103 -30
16 -101 19 -134 6z m125 -78 c22 -20 33 -40 37 -69 4 -31 11 -45 29 -53 14 -6
30 -22 36 -37 10 -21 9 -31 -7 -60 -15 -29 -23 -34 -54 -34 -30 0 -53 14 -146
88 -131 106 -139 114 -131 146 7 29 38 39 64 20 17 -11 25 -10 58 6 52 27 78
25 114 -7z"/>
<path d="M9827 9454 c-11 -14 -17 -26 -15 -27 1 -1 13 -10 25 -20 21 -18 22
-18 39 7 16 25 16 28 -1 46 -23 25 -26 25 -48 -6z"/>
<path d="M9032 8873 c-69 -34 -101 -126 -68 -194 19 -39 397 -349 439 -360 38
-10 75 1 107 32 36 37 46 80 27 118 -9 19 -13 46 -9 79 3 41 0 58 -18 86 -12
20 -30 41 -41 46 -10 6 -19 20 -19 31 0 31 -35 92 -67 115 -43 32 -100 47
-149 40 -28 -3 -55 0 -78 9 -45 19 -83 19 -124 -2z m131 -83 c10 -17 14 -17
38 -4 16 8 46 14 69 14 55 0 108 -48 117 -105 4 -29 17 -50 44 -76 43 -40 47
-55 23 -101 -15 -28 -14 -31 6 -53 16 -17 21 -31 16 -49 -7 -28 -48 -45 -69
-29 -146 111 -381 311 -388 331 -23 59 41 121 103 100 16 -6 34 -19 41 -28z"/>
<path d="M9187 8692 c-10 -10 -17 -21 -17 -24 0 -7 91 -78 100 -78 4 0 15 11
23 24 16 23 15 25 -30 60 -54 42 -55 42 -76 18z"/>
<path d="M9336 8565 c-15 -23 -15 -25 10 -41 24 -16 26 -16 47 5 l22 22 -24
20 c-30 25 -35 24 -55 -6z"/>
<path d="M985 8516 c-68 -30 -124 -114 -125 -187 0 -24 -7 -42 -21 -55 -31
-28 -75 -95 -83 -126 -3 -16 -12 -28 -19 -28 -24 0 -100 -84 -126 -140 -21
-44 -26 -69 -25 -126 1 -174 128 -298 304 -298 68 0 83 4 135 33 125 70 139
101 205 446 68 352 64 388 -43 466 -35 25 -49 29 -106 29 -36 -1 -79 -7 -96
-14z m138 -78 c42 -22 67 -61 67 -104 0 -43 -68 -413 -97 -523 -26 -104 -83
-155 -186 -167 -140 -16 -256 112 -232 256 9 55 72 133 124 153 37 15 41 20
41 50 0 45 36 97 86 124 l41 23 -10 48 c-12 59 3 96 52 129 37 25 80 29 114
11z"/>
<path d="M976 8108 c-14 -52 -8 -65 31 -71 43 -7 53 2 53 49 0 24 -5 33 -22
38 -41 10 -56 6 -62 -16z"/>
<path d="M947 7943 c-3 -4 -8 -28 -12 -53 -9 -55 -20 -70 -51 -70 -17 0 -28 8
-34 25 -5 14 -17 25 -27 25 -10 0 -28 3 -40 6 -20 6 -23 3 -23 -25 0 -101 121
-154 209 -92 30 22 50 75 54 146 2 39 1 40 -35 43 -20 2 -38 -1 -41 -5z"/>
<path d="M11048 8253 c-21 -5 -22 -10 -7 -52 13 -36 11 -36 49 -16 21 11 28
20 23 33 -14 39 -26 46 -65 35z"/>
<path d="M2704 7701 c-10 -20 -20 -39 -22 -42 -3 -7 142 -71 226 -100 l53 -18
10 26 c21 57 18 64 -42 83 -31 10 -90 34 -132 53 l-74 35 -19 -37z"/>
<path d="M3069 7568 c-13 -48 -6 -57 46 -61 39 -2 40 -2 45 41 7 46 11 42 -62
57 -13 2 -21 -7 -29 -37z"/>
<path d="M3256 7538 c-4 -22 -4 -43 -2 -46 3 -2 26 -7 51 -10 l46 -5 -3 49 -3
48 -41 3 c-41 3 -42 2 -48 -39z"/>
<path d="M2841 7429 c-7 -23 -11 -42 -9 -43 24 -18 289 -77 300 -67 3 3 8 24
10 45 l3 39 -81 18 c-44 9 -105 24 -134 33 -73 22 -75 21 -89 -25z"/>
<path d="M3236 7349 c-4 -23 -5 -43 -4 -44 2 -2 23 -5 48 -7 l45 -3 3 48 3 47
-44 0 c-44 0 -44 0 -51 -41z"/>
<path d="M3424 7376 c-3 -8 -4 -29 -2 -48 3 -30 6 -33 38 -36 52 -4 63 8 55
57 -7 40 -8 41 -46 41 -25 0 -42 -5 -45 -14z"/>
<path d="M433 7141 c-10 -38 -9 -41 11 -46 65 -14 69 -12 78 29 5 21 6 41 4
43 -2 3 -22 7 -44 10 -39 5 -39 5 -49 -36z"/>
<path d="M11568 7000 c-14 -9 -15 -16 -6 -40 13 -39 21 -43 52 -29 29 14 31
18 14 54 -12 26 -31 31 -60 15z"/>
<path d="M647 6618 c-81 -17 -141 -69 -153 -133 -3 -19 -11 -35 -16 -35 -21 0
-98 -94 -109 -134 -26 -95 14 -209 92 -265 41 -30 120 -54 154 -47 109 22 172
68 203 149 27 68 55 218 53 284 -2 64 -27 111 -81 148 -48 33 -93 44 -143 33z
m101 -110 c38 -36 45 -65 32 -133 -36 -186 -41 -203 -71 -233 -58 -59 -139
-66 -203 -17 -44 33 -60 73 -54 134 6 58 30 93 80 118 27 13 38 24 38 41 0 97
110 153 178 90z"/>
<path d="M1232 6224 c-18 -14 -39 -38 -46 -52 -11 -21 -29 -31 -75 -45 -108
-31 -169 -108 -179 -224 -6 -78 13 -134 66 -189 28 -29 38 -49 40 -78 5 -76
58 -137 134 -156 64 -16 136 7 173 56 28 36 35 66 95 384 34 179 36 209 14
256 -34 72 -157 99 -222 48z m119 -64 c5 0 15 -10 24 -23 13 -21 11 -43 -30
-256 -25 -128 -48 -244 -51 -257 -8 -33 -50 -64 -86 -64 -56 0 -103 75 -79
127 11 24 9 29 -16 49 -15 13 -35 26 -44 29 -23 8 -51 77 -51 123 2 98 76 166
175 161 28 -2 52 1 53 6 2 6 8 29 14 53 11 43 39 66 68 56 8 -2 18 -4 23 -4z"/>
<path d="M10504 5860 c-54 -35 -81 -88 -164 -325 -68 -193 -81 -238 -77 -277
10 -119 142 -188 243 -129 21 13 44 31 51 41 7 9 31 20 54 24 80 13 155 69
195 146 21 42 24 151 5 198 -10 24 -11 39 -2 63 31 88 2 193 -69 247 -31 24
-45 27 -120 30 -72 2 -90 0 -116 -18z m197 -89 c35 -35 39 -44 39 -88 0 -37
-6 -58 -22 -78 l-22 -28 22 -37 c42 -74 36 -156 -16 -213 -31 -35 -92 -59
-138 -55 -42 3 -45 1 -54 -28 -20 -60 -106 -77 -147 -30 -12 15 -23 38 -23 51
0 21 90 290 149 447 26 68 65 98 130 98 37 0 49 -5 82 -39z"/>
<path d="M10552 5643 c-42 -119 -42 -113 0 -128 l36 -13 36 101 c20 55 33 104
29 108 -5 5 -22 11 -39 15 l-31 6 -31 -89z"/>
<path d="M10477 5433 c-2 -10 -8 -26 -12 -35 -5 -13 2 -21 30 -32 46 -20 42
-20 49 8 3 13 8 31 12 39 3 10 -5 18 -27 26 -42 15 -46 14 -52 -6z"/>
<path d="M11371 5399 c-6 -17 -11 -33 -11 -35 0 -4 71 -26 74 -22 14 21 25 63
19 69 -5 5 -23 11 -39 15 -29 5 -32 3 -43 -27z"/>
<path d="M11163 5408 c-27 -13 -28 -20 -8 -58 l15 -30 35 17 c19 9 33 19 32
22 -28 63 -35 68 -74 49z"/>
<path d="M11554 5272 c-30 -17 -31 -18 -17 -49 14 -36 20 -38 58 -21 28 13 30
22 13 61 -15 31 -14 31 -54 9z"/>
<path d="M11235 5264 c-140 -79 -116 -281 38 -319 128 -32 245 98 199 222 -25
68 -77 106 -150 110 -40 2 -66 -2 -87 -13z m126 -75 c30 -16 48 -66 38 -103
-20 -70 -98 -89 -150 -37 -37 37 -38 79 -3 120 28 33 75 42 115 20z"/>
<path d="M11001 5227 c-15 -42 -15 -44 21 -56 36 -13 45 -7 54 35 5 28 3 31
-30 41 -34 10 -35 10 -45 -20z"/>
<path d="M11551 5028 c-13 -36 -7 -45 35 -54 28 -5 31 -3 41 30 10 34 10 35
-20 45 -42 15 -44 15 -56 -21z"/>
<path d="M11035 5023 c-16 -9 -31 -17 -33 -18 -2 -2 4 -19 12 -39 l15 -36 36
17 c40 19 40 18 17 60 -17 31 -17 31 -47 16z"/>
<path d="M1330 4915 c-56 -23 -96 -47 -118 -70 -18 -19 -36 -35 -41 -35 -5 0
-39 14 -76 30 -37 17 -69 30 -71 30 -4 0 -34 -69 -34 -79 0 -4 36 -22 80 -41
66 -28 80 -38 80 -56 0 -18 -13 -26 -80 -50 -44 -16 -80 -32 -80 -35 0 -11 30
-79 35 -79 2 0 40 13 84 29 105 38 110 31 61 -77 l-39 -82 41 -21 c22 -11 41
-19 43 -17 2 2 19 37 37 78 l35 75 54 -3 c67 -4 201 43 254 90 103 90 77 265
-48 324 -70 32 -116 30 -217 -11z m192 -79 c10 -6 25 -26 34 -46 15 -30 15
-39 3 -74 -16 -45 -52 -76 -93 -79 -26 -2 -29 3 -62 88 -18 50 -32 94 -31 99
2 5 19 15 38 22 36 13 81 9 111 -10z m-208 -134 c16 -42 31 -83 33 -89 9 -24
-26 -13 -62 18 -29 26 -35 38 -35 71 0 39 14 78 28 78 4 0 20 -35 36 -78z"/>
<path d="M11422 4884 c-28 -11 -32 -17 -27 -36 13 -43 29 -52 64 -34 l31 17
-16 32 c-9 18 -17 33 -18 34 0 1 -16 -5 -34 -13z"/>
<path d="M11181 4858 c-15 -43 -15 -44 18 -58 36 -14 46 -9 60 30 11 33 13 31
-56 55 -6 2 -16 -10 -22 -27z"/>
<path d="M10473 4137 c-18 -12 -39 -35 -47 -52 -8 -16 -63 -167 -122 -335
-115 -325 -125 -371 -91 -437 23 -44 81 -91 122 -99 20 -3 35 -12 35 -20 0 -8
7 -14 15 -14 8 0 15 6 15 14 0 8 15 16 38 20 45 7 114 62 131 105 9 21 21 31
46 35 18 4 52 22 77 40 85 65 126 192 93 289 -13 38 -14 55 -6 79 25 70 -3
183 -50 209 -12 6 -19 20 -19 37 0 46 -41 115 -80 134 -48 25 -117 22 -157 -5z
m131 -73 c23 -22 30 -62 18 -90 -10 -21 -8 -25 17 -39 69 -35 92 -117 51 -180
-16 -25 -17 -32 -6 -45 52 -59 38 -185 -28 -244 -29 -26 -80 -46 -115 -46 -25
0 -30 -5 -35 -34 -25 -133 -198 -135 -231 -4 -9 36 206 655 236 681 26 21 72
22 93 1z"/>
<path d="M10505 3850 c-9 -42 -8 -44 30 -57 33 -11 34 -11 44 19 15 42 15 43
-14 56 -40 18 -53 14 -60 -18z"/>
<path d="M10451 3698 c-13 -36 -9 -41 36 -56 29 -9 32 -8 37 13 3 13 8 30 12
38 3 10 -5 18 -27 26 -44 15 -46 15 -58 -21z"/>
<path d="M10381 3494 c-17 -47 -31 -87 -31 -88 0 -2 11 -7 24 -10 13 -3 31 -8
39 -12 11 -4 22 16 45 85 l30 90 -30 10 c-17 6 -34 11 -39 11 -4 0 -21 -38
-38 -86z"/>
</g>
</svg>
